<?xml version="1.0" encoding="UTF-8" standalone="no"?>
<!DOCTYPE svg PUBLIC "-//W3C//DTD SVG 1.1//EN"
 "http://www.w3.org/Graphics/SVG/1.1/DTD/svg11.dtd">
<!-- Generated by graphviz version 12.1.2 (0)
 -->
<!-- Pages: 1 -->
<svg width="1589pt" height="270pt"
 viewBox="0.00 0.00 1589.12 270.25" xmlns="http://www.w3.org/2000/svg" xmlns:xlink="http://www.w3.org/1999/xlink">
<g id="graph0" class="graph" transform="scale(1 1) rotate(0) translate(4 266.25)">
<polygon fill="white" stroke="none" points="-4,4 -4,-266.25 1585.12,-266.25 1585.12,4 -4,4"/>
<!-- node_0x60ea626f74a0 -->
<g id="node1" class="node">
<title>node_0x60ea626f74a0</title>
<polygon fill="yellow" stroke="black" points="505.25,-224.75 505.25,-261.75 867.75,-261.75 867.75,-224.75 505.25,-224.75"/>
<text text-anchor="middle" x="686.5" y="-249.2" font-family="Times,serif" font-size="9.00">Животное</text>
<polyline fill="none" stroke="black" points="505.25,-243.25 867.75,-243.25"/>
<text text-anchor="middle" x="553.75" y="-230.7" font-family="Times,serif" font-size="9.00">left = 0x60ea626f76b0</text>
<polyline fill="none" stroke="black" points="602.25,-224.75 602.25,-243.25"/>
<text text-anchor="middle" x="653.38" y="-230.7" font-family="Times,serif" font-size="9.00">node = 0x60ea626f74a0</text>
<polyline fill="none" stroke="black" points="704.5,-224.75 704.5,-243.25"/>
<text text-anchor="middle" x="735.75" y="-230.7" font-family="Times,serif" font-size="9.00">parent = (nil)</text>
<polyline fill="none" stroke="black" points="767,-224.75 767,-243.25"/>
<text text-anchor="middle" x="817.38" y="-230.7" font-family="Times,serif" font-size="9.00">right = 0x60ea626f76e0</text>
</g>
<!-- node_0x60ea626f76b0 -->
<g id="node2" class="node">
<title>node_0x60ea626f76b0</title>
<polygon fill="#bdef9e" stroke="black" points="269.38,-150.75 269.38,-187.75 677.62,-187.75 677.62,-150.75 269.38,-150.75"/>
<text text-anchor="middle" x="473.5" y="-175.2" font-family="Times,serif" font-size="9.00">Плавает</text>
<polyline fill="none" stroke="black" points="269.38,-169.25 677.62,-169.25"/>
<text text-anchor="middle" x="317.88" y="-156.7" font-family="Times,serif" font-size="9.00">left = 0x60ea626f7710</text>
<polyline fill="none" stroke="black" points="366.38,-150.75 366.38,-169.25"/>
<text text-anchor="middle" x="417.88" y="-156.7" font-family="Times,serif" font-size="9.00">node = 0x60ea626f76b0</text>
<polyline fill="none" stroke="black" points="469.38,-150.75 469.38,-169.25"/>
<text text-anchor="middle" x="522.75" y="-156.7" font-family="Times,serif" font-size="9.00">parent = 0x60ea626f74a0</text>
<polyline fill="none" stroke="black" points="576.12,-150.75 576.12,-169.25"/>
<text text-anchor="middle" x="626.88" y="-156.7" font-family="Times,serif" font-size="9.00">right = 0x60ea626f7740</text>
</g>
<!-- node_0x60ea626f74a0&#45;&gt;node_0x60ea626f76b0 -->
<g id="edge1" class="edge">
<title>node_0x60ea626f74a0&#45;&gt;node_0x60ea626f76b0</title>
<path fill="none" stroke="red" d="M633.3,-224.27C604.09,-214.39 567.67,-202.08 536.99,-191.71"/>
<polygon fill="red" stroke="red" points="538.42,-188.5 527.82,-188.61 536.18,-195.13 538.42,-188.5"/>
</g>
<!-- node_0x60ea626f76e0 -->
<g id="node5" class="node">
<title>node_0x60ea626f76e0</title>
<polygon fill="#bdef9e" stroke="black" points="696.12,-150.75 696.12,-187.75 1102.88,-187.75 1102.88,-150.75 696.12,-150.75"/>
<text text-anchor="middle" x="899.5" y="-175.2" font-family="Times,serif" font-size="9.00">Растение</text>
<polyline fill="none" stroke="black" points="696.12,-169.25 1102.88,-169.25"/>
<text text-anchor="middle" x="744.62" y="-156.7" font-family="Times,serif" font-size="9.00">left = 0x60ea626f7770</text>
<polyline fill="none" stroke="black" points="793.12,-150.75 793.12,-169.25"/>
<text text-anchor="middle" x="844.25" y="-156.7" font-family="Times,serif" font-size="9.00">node = 0x60ea626f76e0</text>
<polyline fill="none" stroke="black" points="895.38,-150.75 895.38,-169.25"/>
<text text-anchor="middle" x="948.75" y="-156.7" font-family="Times,serif" font-size="9.00">parent = 0x60ea626f74a0</text>
<polyline fill="none" stroke="black" points="1002.12,-150.75 1002.12,-169.25"/>
<text text-anchor="middle" x="1052.5" y="-156.7" font-family="Times,serif" font-size="9.00">right = 0x60ea626f77a0</text>
</g>
<!-- node_0x60ea626f74a0&#45;&gt;node_0x60ea626f76e0 -->
<g id="edge4" class="edge">
<title>node_0x60ea626f74a0&#45;&gt;node_0x60ea626f76e0</title>
<path fill="none" stroke="blue" d="M739.7,-224.27C768.91,-214.39 805.33,-202.08 836.01,-191.71"/>
<polygon fill="blue" stroke="blue" points="836.82,-195.13 845.18,-188.61 834.58,-188.5 836.82,-195.13"/>
</g>
<!-- node_0x60ea626f7710 -->
<g id="node3" class="node">
<title>node_0x60ea626f7710</title>
<polygon fill="#bdef9e" stroke="black" points="0,-76.75 0,-113.75 319,-113.75 319,-76.75 0,-76.75"/>
<text text-anchor="middle" x="159.5" y="-101.2" font-family="Times,serif" font-size="9.00">Кит</text>
<polyline fill="none" stroke="black" points="0,-95.25 319,-95.25"/>
<text text-anchor="middle" x="26" y="-82.7" font-family="Times,serif" font-size="9.00">left = (nil)</text>
<polyline fill="none" stroke="black" points="52,-76.75 52,-95.25"/>
<text text-anchor="middle" x="103.5" y="-82.7" font-family="Times,serif" font-size="9.00">node = 0x60ea626f7710</text>
<polyline fill="none" stroke="black" points="155,-76.75 155,-95.25"/>
<text text-anchor="middle" x="208.75" y="-82.7" font-family="Times,serif" font-size="9.00">parent = 0x60ea626f76b0</text>
<polyline fill="none" stroke="black" points="262.5,-76.75 262.5,-95.25"/>
<text text-anchor="middle" x="290.75" y="-82.7" font-family="Times,serif" font-size="9.00">right = (nil)</text>
</g>
<!-- node_0x60ea626f76b0&#45;&gt;node_0x60ea626f7710 -->
<g id="edge2" class="edge">
<title>node_0x60ea626f76b0&#45;&gt;node_0x60ea626f7710</title>
<path fill="none" stroke="red" d="M395.07,-150.27C350.69,-140.09 295.01,-127.32 248.93,-116.76"/>
<polygon fill="red" stroke="red" points="249.75,-113.35 239.22,-114.53 248.18,-120.18 249.75,-113.35"/>
</g>
<!-- node_0x60ea626f7740 -->
<g id="node4" class="node">
<title>node_0x60ea626f7740</title>
<polygon fill="#bdef9e" stroke="black" points="337,-76.75 337,-113.75 656,-113.75 656,-76.75 337,-76.75"/>
<text text-anchor="middle" x="496.5" y="-101.2" font-family="Times,serif" font-size="9.00">Попугай</text>
<polyline fill="none" stroke="black" points="337,-95.25 656,-95.25"/>
<text text-anchor="middle" x="363" y="-82.7" font-family="Times,serif" font-size="9.00">left = (nil)</text>
<polyline fill="none" stroke="black" points="389,-76.75 389,-95.25"/>
<text text-anchor="middle" x="440.5" y="-82.7" font-family="Times,serif" font-size="9.00">node = 0x60ea626f7740</text>
<polyline fill="none" stroke="black" points="492,-76.75 492,-95.25"/>
<text text-anchor="middle" x="545.75" y="-82.7" font-family="Times,serif" font-size="9.00">parent = 0x60ea626f76b0</text>
<polyline fill="none" stroke="black" points="599.5,-76.75 599.5,-95.25"/>
<text text-anchor="middle" x="627.75" y="-82.7" font-family="Times,serif" font-size="9.00">right = (nil)</text>
</g>
<!-- node_0x60ea626f76b0&#45;&gt;node_0x60ea626f7740 -->
<g id="edge3" class="edge">
<title>node_0x60ea626f76b0&#45;&gt;node_0x60ea626f7740</title>
<path fill="none" stroke="blue" d="M479.19,-150.45C481.65,-142.75 484.59,-133.54 487.34,-124.92"/>
<polygon fill="blue" stroke="blue" points="490.63,-126.13 490.34,-115.53 483.96,-124 490.63,-126.13"/>
</g>
<!-- node_0x60ea626f7770 -->
<g id="node6" class="node">
<title>node_0x60ea626f7770</title>
<polygon fill="#bdef9e" stroke="black" points="718.38,-76.75 718.38,-113.75 1036.62,-113.75 1036.62,-76.75 718.38,-76.75"/>
<text text-anchor="middle" x="877.5" y="-101.2" font-family="Times,serif" font-size="9.00">Ромашка</text>
<polyline fill="none" stroke="black" points="718.38,-95.25 1036.62,-95.25"/>
<text text-anchor="middle" x="744.38" y="-82.7" font-family="Times,serif" font-size="9.00">left = (nil)</text>
<polyline fill="none" stroke="black" points="770.38,-76.75 770.38,-95.25"/>
<text text-anchor="middle" x="821.88" y="-82.7" font-family="Times,serif" font-size="9.00">node = 0x60ea626f7770</text>
<polyline fill="none" stroke="black" points="873.38,-76.75 873.38,-95.25"/>
<text text-anchor="middle" x="926.75" y="-82.7" font-family="Times,serif" font-size="9.00">parent = 0x60ea626f76e0</text>
<polyline fill="none" stroke="black" points="980.12,-76.75 980.12,-95.25"/>
<text text-anchor="middle" x="1008.38" y="-82.7" font-family="Times,serif" font-size="9.00">right = (nil)</text>
</g>
<!-- node_0x60ea626f76e0&#45;&gt;node_0x60ea626f7770 -->
<g id="edge5" class="edge">
<title>node_0x60ea626f76e0&#45;&gt;node_0x60ea626f7770</title>
<path fill="none" stroke="red" d="M894.06,-150.45C891.71,-142.75 888.89,-133.54 886.26,-124.92"/>
<polygon fill="red" stroke="red" points="889.66,-124.08 883.39,-115.54 882.97,-126.13 889.66,-124.08"/>
</g>
<!-- node_0x60ea626f77a0 -->
<g id="node7" class="node">
<title>node_0x60ea626f77a0</title>
<polygon fill="#bdef9e" stroke="black" points="1054.25,-76.75 1054.25,-113.75 1458.75,-113.75 1458.75,-76.75 1054.25,-76.75"/>
<text text-anchor="middle" x="1256.5" y="-101.2" font-family="Times,serif" font-size="9.00">x</text>
<polyline fill="none" stroke="black" points="1054.25,-95.25 1458.75,-95.25"/>
<text text-anchor="middle" x="1102.75" y="-82.7" font-family="Times,serif" font-size="9.00">left = 0x60ea626f8020</text>
<polyline fill="none" stroke="black" points="1151.25,-76.75 1151.25,-95.25"/>
<text text-anchor="middle" x="1202.38" y="-82.7" font-family="Times,serif" font-size="9.00">node = 0x60ea626f77a0</text>
<polyline fill="none" stroke="black" points="1253.5,-76.75 1253.5,-95.25"/>
<text text-anchor="middle" x="1306.88" y="-82.7" font-family="Times,serif" font-size="9.00">parent = 0x60ea626f76e0</text>
<polyline fill="none" stroke="black" points="1360.25,-76.75 1360.25,-95.25"/>
<text text-anchor="middle" x="1409.5" y="-82.7" font-family="Times,serif" font-size="9.00">right = 0x60ea626f7ff0</text>
</g>
<!-- node_0x60ea626f76e0&#45;&gt;node_0x60ea626f77a0 -->
<g id="edge6" class="edge">
<title>node_0x60ea626f76e0&#45;&gt;node_0x60ea626f77a0</title>
<path fill="none" stroke="blue" d="M988.67,-150.27C1039.66,-139.98 1103.77,-127.05 1156.48,-116.42"/>
<polygon fill="blue" stroke="blue" points="1156.95,-119.9 1166.06,-114.49 1155.57,-113.04 1156.95,-119.9"/>
</g>
<!-- node_0x60ea626f8020 -->
<g id="node8" class="node">
<title>node_0x60ea626f8020</title>
<polygon fill="#bdef9e" stroke="black" points="929.38,-0.5 929.38,-39.75 1247.62,-39.75 1247.62,-0.5 929.38,-0.5"/>
<text text-anchor="middle" x="1088.5" y="-27.2" font-family="Times,serif" font-size="9.00">`çÜvü</text>
<polyline fill="none" stroke="black" points="929.38,-19 1247.62,-19"/>
<text text-anchor="middle" x="955.38" y="-6.45" font-family="Times,serif" font-size="9.00">left = (nil)</text>
<polyline fill="none" stroke="black" points="981.38,-0.5 981.38,-19"/>
<text text-anchor="middle" x="1032.88" y="-6.45" font-family="Times,serif" font-size="9.00">node = 0x60ea626f8020</text>
<polyline fill="none" stroke="black" points="1084.38,-0.5 1084.38,-19"/>
<text text-anchor="middle" x="1137.75" y="-6.45" font-family="Times,serif" font-size="9.00">parent = 0x60ea626f77a0</text>
<polyline fill="none" stroke="black" points="1191.12,-0.5 1191.12,-19"/>
<text text-anchor="middle" x="1219.38" y="-6.45" font-family="Times,serif" font-size="9.00">right = (nil)</text>
</g>
<!-- node_0x60ea626f77a0&#45;&gt;node_0x60ea626f8020 -->
<g id="edge7" class="edge">
<title>node_0x60ea626f77a0&#45;&gt;node_0x60ea626f8020</title>
<path fill="none" stroke="red" d="M1215.4,-76.36C1193.58,-66.86 1166.49,-55.07 1142.94,-44.82"/>
<polygon fill="red" stroke="red" points="1144.36,-41.62 1133.79,-40.84 1141.57,-48.04 1144.36,-41.62"/>
</g>
<!-- node_0x60ea626f7ff0 -->
<g id="node9" class="node">
<title>node_0x60ea626f7ff0</title>
<polygon fill="#bdef9e" stroke="black" points="1265.88,-1.62 1265.88,-38.62 1581.12,-38.62 1581.12,-1.62 1265.88,-1.62"/>
<text text-anchor="middle" x="1423.5" y="-26.07" font-family="Times,serif" font-size="9.00">Гвоздь</text>
<polyline fill="none" stroke="black" points="1265.88,-20.12 1581.12,-20.12"/>
<text text-anchor="middle" x="1291.88" y="-7.58" font-family="Times,serif" font-size="9.00">left = (nil)</text>
<polyline fill="none" stroke="black" points="1317.88,-1.62 1317.88,-20.12"/>
<text text-anchor="middle" x="1367.88" y="-7.58" font-family="Times,serif" font-size="9.00">node = 0x60ea626f7ff0</text>
<polyline fill="none" stroke="black" points="1417.88,-1.62 1417.88,-20.12"/>
<text text-anchor="middle" x="1471.25" y="-7.58" font-family="Times,serif" font-size="9.00">parent = 0x60ea626f77a0</text>
<polyline fill="none" stroke="black" points="1524.62,-1.62 1524.62,-20.12"/>
<text text-anchor="middle" x="1552.88" y="-7.58" font-family="Times,serif" font-size="9.00">right = (nil)</text>
</g>
<!-- node_0x60ea626f77a0&#45;&gt;node_0x60ea626f7ff0 -->
<g id="edge8" class="edge">
<title>node_0x60ea626f77a0&#45;&gt;node_0x60ea626f7ff0</title>
<path fill="none" stroke="blue" d="M1297.35,-76.36C1319.9,-66.49 1348.11,-54.14 1372.13,-43.62"/>
<polygon fill="blue" stroke="blue" points="1373.35,-46.91 1381.1,-39.69 1370.54,-40.49 1373.35,-46.91"/>
</g>
</g>
</svg>
