<?xml version="1.0" encoding="UTF-8" standalone="no"?>
<!DOCTYPE svg PUBLIC "-//W3C//DTD SVG 1.1//EN"
 "http://www.w3.org/Graphics/SVG/1.1/DTD/svg11.dtd">
<!-- Generated by graphviz version 12.1.2 (0)
 -->
<!-- Pages: 1 -->
<svg width="1387pt" height="194pt"
 viewBox="0.00 0.00 1386.75 194.00" xmlns="http://www.w3.org/2000/svg" xmlns:xlink="http://www.w3.org/1999/xlink">
<g id="graph0" class="graph" transform="scale(1 1) rotate(0) translate(4 190)">
<polygon fill="white" stroke="none" points="-4,4 -4,-190 1382.75,-190 1382.75,4 -4,4"/>
<!-- node_0x5aa687c014a0 -->
<g id="node1" class="node">
<title>node_0x5aa687c014a0</title>
<polygon fill="yellow" stroke="black" points="507.88,-148.5 507.88,-185.5 872.62,-185.5 872.62,-148.5 507.88,-148.5"/>
<text text-anchor="middle" x="690.25" y="-172.95" font-family="Times,serif" font-size="9.00">Животное</text>
<polyline fill="none" stroke="black" points="507.88,-167 872.62,-167"/>
<text text-anchor="middle" x="556.75" y="-154.45" font-family="Times,serif" font-size="9.00">left = 0x5aa687c016b0</text>
<polyline fill="none" stroke="black" points="605.62,-148.5 605.62,-167"/>
<text text-anchor="middle" x="657.12" y="-154.45" font-family="Times,serif" font-size="9.00">node = 0x5aa687c014a0</text>
<polyline fill="none" stroke="black" points="708.62,-148.5 708.62,-167"/>
<text text-anchor="middle" x="739.88" y="-154.45" font-family="Times,serif" font-size="9.00">parent = (nil)</text>
<polyline fill="none" stroke="black" points="771.12,-148.5 771.12,-167"/>
<text text-anchor="middle" x="821.88" y="-154.45" font-family="Times,serif" font-size="9.00">right = 0x5aa687c016e0</text>
</g>
<!-- node_0x5aa687c016b0 -->
<g id="node2" class="node">
<title>node_0x5aa687c016b0</title>
<polygon fill="#bdef9e" stroke="black" points="270.62,-74.5 270.62,-111.5 681.88,-111.5 681.88,-74.5 270.62,-74.5"/>
<text text-anchor="middle" x="476.25" y="-98.95" font-family="Times,serif" font-size="9.00">Плавает</text>
<polyline fill="none" stroke="black" points="270.62,-93 681.88,-93"/>
<text text-anchor="middle" x="319.5" y="-80.45" font-family="Times,serif" font-size="9.00">left = 0x5aa687c01710</text>
<polyline fill="none" stroke="black" points="368.38,-74.5 368.38,-93"/>
<text text-anchor="middle" x="420.25" y="-80.45" font-family="Times,serif" font-size="9.00">node = 0x5aa687c016b0</text>
<polyline fill="none" stroke="black" points="472.12,-74.5 472.12,-93"/>
<text text-anchor="middle" x="525.88" y="-80.45" font-family="Times,serif" font-size="9.00">parent = 0x5aa687c014a0</text>
<polyline fill="none" stroke="black" points="579.62,-74.5 579.62,-93"/>
<text text-anchor="middle" x="630.75" y="-80.45" font-family="Times,serif" font-size="9.00">right = 0x5aa687c01740</text>
</g>
<!-- node_0x5aa687c014a0&#45;&gt;node_0x5aa687c016b0 -->
<g id="edge1" class="edge">
<title>node_0x5aa687c014a0&#45;&gt;node_0x5aa687c016b0</title>
<path fill="none" stroke="red" d="M636.8,-148.02C607.45,-138.14 570.87,-125.83 540.03,-115.46"/>
<polygon fill="red" stroke="red" points="541.42,-112.23 530.82,-112.36 539.18,-118.87 541.42,-112.23"/>
</g>
<!-- node_0x5aa687c016e0 -->
<g id="node5" class="node">
<title>node_0x5aa687c016e0</title>
<polygon fill="#bdef9e" stroke="black" points="700.38,-74.5 700.38,-111.5 1110.12,-111.5 1110.12,-74.5 700.38,-74.5"/>
<text text-anchor="middle" x="905.25" y="-98.95" font-family="Times,serif" font-size="9.00">Растение</text>
<polyline fill="none" stroke="black" points="700.38,-93 1110.12,-93"/>
<text text-anchor="middle" x="749.25" y="-80.45" font-family="Times,serif" font-size="9.00">left = 0x5aa687c01770</text>
<polyline fill="none" stroke="black" points="798.12,-74.5 798.12,-93"/>
<text text-anchor="middle" x="849.62" y="-80.45" font-family="Times,serif" font-size="9.00">node = 0x5aa687c016e0</text>
<polyline fill="none" stroke="black" points="901.12,-74.5 901.12,-93"/>
<text text-anchor="middle" x="954.88" y="-80.45" font-family="Times,serif" font-size="9.00">parent = 0x5aa687c014a0</text>
<polyline fill="none" stroke="black" points="1008.62,-74.5 1008.62,-93"/>
<text text-anchor="middle" x="1059.38" y="-80.45" font-family="Times,serif" font-size="9.00">right = 0x5aa687c017a0</text>
</g>
<!-- node_0x5aa687c014a0&#45;&gt;node_0x5aa687c016e0 -->
<g id="edge4" class="edge">
<title>node_0x5aa687c014a0&#45;&gt;node_0x5aa687c016e0</title>
<path fill="none" stroke="blue" d="M743.95,-148.02C773.43,-138.14 810.19,-125.83 841.17,-115.46"/>
<polygon fill="blue" stroke="blue" points="842.06,-118.85 850.43,-112.36 839.83,-112.22 842.06,-118.85"/>
</g>
<!-- node_0x5aa687c01710 -->
<g id="node3" class="node">
<title>node_0x5aa687c01710</title>
<polygon fill="#bdef9e" stroke="black" points="0,-0.5 0,-37.5 320.5,-37.5 320.5,-0.5 0,-0.5"/>
<text text-anchor="middle" x="160.25" y="-24.95" font-family="Times,serif" font-size="9.00">Кит</text>
<polyline fill="none" stroke="black" points="0,-19 320.5,-19"/>
<text text-anchor="middle" x="26" y="-6.45" font-family="Times,serif" font-size="9.00">left = (nil)</text>
<polyline fill="none" stroke="black" points="52,-0.5 52,-19"/>
<text text-anchor="middle" x="103.88" y="-6.45" font-family="Times,serif" font-size="9.00">node = 0x5aa687c01710</text>
<polyline fill="none" stroke="black" points="155.75,-0.5 155.75,-19"/>
<text text-anchor="middle" x="209.88" y="-6.45" font-family="Times,serif" font-size="9.00">parent = 0x5aa687c016b0</text>
<polyline fill="none" stroke="black" points="264,-0.5 264,-19"/>
<text text-anchor="middle" x="292.25" y="-6.45" font-family="Times,serif" font-size="9.00">right = (nil)</text>
</g>
<!-- node_0x5aa687c016b0&#45;&gt;node_0x5aa687c01710 -->
<g id="edge2" class="edge">
<title>node_0x5aa687c016b0&#45;&gt;node_0x5aa687c01710</title>
<path fill="none" stroke="red" d="M397.32,-74.02C352.56,-63.82 296.39,-51.02 249.96,-40.44"/>
<polygon fill="red" stroke="red" points="250.99,-37.09 240.47,-38.28 249.44,-43.91 250.99,-37.09"/>
</g>
<!-- node_0x5aa687c01740 -->
<g id="node4" class="node">
<title>node_0x5aa687c01740</title>
<polygon fill="#bdef9e" stroke="black" points="339,-0.5 339,-37.5 659.5,-37.5 659.5,-0.5 339,-0.5"/>
<text text-anchor="middle" x="499.25" y="-24.95" font-family="Times,serif" font-size="9.00">Попугай</text>
<polyline fill="none" stroke="black" points="339,-19 659.5,-19"/>
<text text-anchor="middle" x="365" y="-6.45" font-family="Times,serif" font-size="9.00">left = (nil)</text>
<polyline fill="none" stroke="black" points="391,-0.5 391,-19"/>
<text text-anchor="middle" x="442.88" y="-6.45" font-family="Times,serif" font-size="9.00">node = 0x5aa687c01740</text>
<polyline fill="none" stroke="black" points="494.75,-0.5 494.75,-19"/>
<text text-anchor="middle" x="548.88" y="-6.45" font-family="Times,serif" font-size="9.00">parent = 0x5aa687c016b0</text>
<polyline fill="none" stroke="black" points="603,-0.5 603,-19"/>
<text text-anchor="middle" x="631.25" y="-6.45" font-family="Times,serif" font-size="9.00">right = (nil)</text>
</g>
<!-- node_0x5aa687c016b0&#45;&gt;node_0x5aa687c01740 -->
<g id="edge3" class="edge">
<title>node_0x5aa687c016b0&#45;&gt;node_0x5aa687c01740</title>
<path fill="none" stroke="blue" d="M481.94,-74.2C484.4,-66.5 487.34,-57.29 490.09,-48.67"/>
<polygon fill="blue" stroke="blue" points="493.38,-49.88 493.09,-39.28 486.71,-47.75 493.38,-49.88"/>
</g>
<!-- node_0x5aa687c01770 -->
<g id="node6" class="node">
<title>node_0x5aa687c01770</title>
<polygon fill="#bdef9e" stroke="black" points="722.38,-0.5 722.38,-37.5 1042.12,-37.5 1042.12,-0.5 722.38,-0.5"/>
<text text-anchor="middle" x="882.25" y="-24.95" font-family="Times,serif" font-size="9.00">Ромашка</text>
<polyline fill="none" stroke="black" points="722.38,-19 1042.12,-19"/>
<text text-anchor="middle" x="748.38" y="-6.45" font-family="Times,serif" font-size="9.00">left = (nil)</text>
<polyline fill="none" stroke="black" points="774.38,-0.5 774.38,-19"/>
<text text-anchor="middle" x="826.25" y="-6.45" font-family="Times,serif" font-size="9.00">node = 0x5aa687c01770</text>
<polyline fill="none" stroke="black" points="878.12,-0.5 878.12,-19"/>
<text text-anchor="middle" x="931.88" y="-6.45" font-family="Times,serif" font-size="9.00">parent = 0x5aa687c016e0</text>
<polyline fill="none" stroke="black" points="985.62,-0.5 985.62,-19"/>
<text text-anchor="middle" x="1013.88" y="-6.45" font-family="Times,serif" font-size="9.00">right = (nil)</text>
</g>
<!-- node_0x5aa687c016e0&#45;&gt;node_0x5aa687c01770 -->
<g id="edge5" class="edge">
<title>node_0x5aa687c016e0&#45;&gt;node_0x5aa687c01770</title>
<path fill="none" stroke="red" d="M899.56,-74.2C897.1,-66.5 894.16,-57.29 891.41,-48.67"/>
<polygon fill="red" stroke="red" points="894.79,-47.75 888.41,-39.28 888.12,-49.88 894.79,-47.75"/>
</g>
<!-- node_0x5aa687c017a0 -->
<g id="node7" class="node">
<title>node_0x5aa687c017a0</title>
<polygon fill="#bdef9e" stroke="black" points="1059.75,-0.5 1059.75,-37.5 1378.75,-37.5 1378.75,-0.5 1059.75,-0.5"/>
<text text-anchor="middle" x="1219.25" y="-24.95" font-family="Times,serif" font-size="9.00">Гвоздь</text>
<polyline fill="none" stroke="black" points="1059.75,-19 1378.75,-19"/>
<text text-anchor="middle" x="1085.75" y="-6.45" font-family="Times,serif" font-size="9.00">left = (nil)</text>
<polyline fill="none" stroke="black" points="1111.75,-0.5 1111.75,-19"/>
<text text-anchor="middle" x="1163.25" y="-6.45" font-family="Times,serif" font-size="9.00">node = 0x5aa687c017a0</text>
<polyline fill="none" stroke="black" points="1214.75,-0.5 1214.75,-19"/>
<text text-anchor="middle" x="1268.5" y="-6.45" font-family="Times,serif" font-size="9.00">parent = 0x5aa687c016e0</text>
<polyline fill="none" stroke="black" points="1322.25,-0.5 1322.25,-19"/>
<text text-anchor="middle" x="1350.5" y="-6.45" font-family="Times,serif" font-size="9.00">right = (nil)</text>
</g>
<!-- node_0x5aa687c016e0&#45;&gt;node_0x5aa687c017a0 -->
<g id="edge6" class="edge">
<title>node_0x5aa687c016e0&#45;&gt;node_0x5aa687c017a0</title>
<path fill="none" stroke="blue" d="M983.68,-74.02C1028.06,-63.84 1083.74,-51.07 1129.82,-40.51"/>
<polygon fill="blue" stroke="blue" points="1130.57,-43.93 1139.53,-38.28 1129,-37.1 1130.57,-43.93"/>
</g>
</g>
</svg>
