<?xml version="1.0" encoding="UTF-8" standalone="no"?>
<!DOCTYPE svg PUBLIC "-//W3C//DTD SVG 1.1//EN"
 "http://www.w3.org/Graphics/SVG/1.1/DTD/svg11.dtd">
<!-- Generated by graphviz version 12.1.2 (0)
 -->
<!-- Pages: 1 -->
<svg width="1384pt" height="194pt"
 viewBox="0.00 0.00 1384.00 194.00" xmlns="http://www.w3.org/2000/svg" xmlns:xlink="http://www.w3.org/1999/xlink">
<g id="graph0" class="graph" transform="scale(1 1) rotate(0) translate(4 190)">
<polygon fill="white" stroke="none" points="-4,4 -4,-190 1380,-190 1380,4 -4,4"/>
<!-- node_0x58f603a458a0 -->
<g id="node1" class="node">
<title>node_0x58f603a458a0</title>
<polygon fill="yellow" stroke="black" points="507.25,-148.5 507.25,-185.5 870.5,-185.5 870.5,-148.5 507.25,-148.5"/>
<text text-anchor="middle" x="688.88" y="-172.95" font-family="Times,serif" font-size="9.00">Животное</text>
<polyline fill="none" stroke="black" points="507.25,-167 870.5,-167"/>
<text text-anchor="middle" x="555.75" y="-154.45" font-family="Times,serif" font-size="9.00">left = 0x58f603a45ab0</text>
<polyline fill="none" stroke="black" points="604.25,-148.5 604.25,-167"/>
<text text-anchor="middle" x="655.75" y="-154.45" font-family="Times,serif" font-size="9.00">node = 0x58f603a458a0</text>
<polyline fill="none" stroke="black" points="707.25,-148.5 707.25,-167"/>
<text text-anchor="middle" x="738.5" y="-154.45" font-family="Times,serif" font-size="9.00">parent = (nil)</text>
<polyline fill="none" stroke="black" points="769.75,-148.5 769.75,-167"/>
<text text-anchor="middle" x="820.12" y="-154.45" font-family="Times,serif" font-size="9.00">right = 0x58f603a45ae0</text>
</g>
<!-- node_0x58f603a45ab0 -->
<g id="node2" class="node">
<title>node_0x58f603a45ab0</title>
<polygon fill="#bdef9e" stroke="black" points="269.62,-74.5 269.62,-111.5 680.12,-111.5 680.12,-74.5 269.62,-74.5"/>
<text text-anchor="middle" x="474.88" y="-98.95" font-family="Times,serif" font-size="9.00">Плавает</text>
<polyline fill="none" stroke="black" points="269.62,-93 680.12,-93"/>
<text text-anchor="middle" x="318.5" y="-80.45" font-family="Times,serif" font-size="9.00">left = 0x58f603a45b10</text>
<polyline fill="none" stroke="black" points="367.38,-74.5 367.38,-93"/>
<text text-anchor="middle" x="418.88" y="-80.45" font-family="Times,serif" font-size="9.00">node = 0x58f603a45ab0</text>
<polyline fill="none" stroke="black" points="470.38,-74.5 470.38,-93"/>
<text text-anchor="middle" x="524.12" y="-80.45" font-family="Times,serif" font-size="9.00">parent = 0x58f603a458a0</text>
<polyline fill="none" stroke="black" points="577.88,-74.5 577.88,-93"/>
<text text-anchor="middle" x="629" y="-80.45" font-family="Times,serif" font-size="9.00">right = 0x58f603a45b40</text>
</g>
<!-- node_0x58f603a458a0&#45;&gt;node_0x58f603a45ab0 -->
<g id="edge1" class="edge">
<title>node_0x58f603a458a0&#45;&gt;node_0x58f603a45ab0</title>
<path fill="none" stroke="red" d="M635.43,-148.02C606.08,-138.14 569.49,-125.83 538.66,-115.46"/>
<polygon fill="red" stroke="red" points="540.04,-112.23 529.45,-112.36 537.81,-118.87 540.04,-112.23"/>
</g>
<!-- node_0x58f603a45ae0 -->
<g id="node5" class="node">
<title>node_0x58f603a45ae0</title>
<polygon fill="#bdef9e" stroke="black" points="698.38,-74.5 698.38,-111.5 1107.38,-111.5 1107.38,-74.5 698.38,-74.5"/>
<text text-anchor="middle" x="902.88" y="-98.95" font-family="Times,serif" font-size="9.00">Растение</text>
<polyline fill="none" stroke="black" points="698.38,-93 1107.38,-93"/>
<text text-anchor="middle" x="747.25" y="-80.45" font-family="Times,serif" font-size="9.00">left = 0x58f603a45b70</text>
<polyline fill="none" stroke="black" points="796.12,-74.5 796.12,-93"/>
<text text-anchor="middle" x="847.25" y="-80.45" font-family="Times,serif" font-size="9.00">node = 0x58f603a45ae0</text>
<polyline fill="none" stroke="black" points="898.38,-74.5 898.38,-93"/>
<text text-anchor="middle" x="952.12" y="-80.45" font-family="Times,serif" font-size="9.00">parent = 0x58f603a458a0</text>
<polyline fill="none" stroke="black" points="1005.88,-74.5 1005.88,-93"/>
<text text-anchor="middle" x="1056.62" y="-80.45" font-family="Times,serif" font-size="9.00">right = 0x58f603a45ba0</text>
</g>
<!-- node_0x58f603a458a0&#45;&gt;node_0x58f603a45ae0 -->
<g id="edge4" class="edge">
<title>node_0x58f603a458a0&#45;&gt;node_0x58f603a45ae0</title>
<path fill="none" stroke="blue" d="M742.32,-148.02C771.67,-138.14 808.26,-125.83 839.09,-115.46"/>
<polygon fill="blue" stroke="blue" points="839.94,-118.87 848.3,-112.36 837.71,-112.23 839.94,-118.87"/>
</g>
<!-- node_0x58f603a45b10 -->
<g id="node3" class="node">
<title>node_0x58f603a45b10</title>
<polygon fill="#bdef9e" stroke="black" points="0,-0.5 0,-37.5 319.75,-37.5 319.75,-0.5 0,-0.5"/>
<text text-anchor="middle" x="159.88" y="-24.95" font-family="Times,serif" font-size="9.00">Кит</text>
<polyline fill="none" stroke="black" points="0,-19 319.75,-19"/>
<text text-anchor="middle" x="26" y="-6.45" font-family="Times,serif" font-size="9.00">left = (nil)</text>
<polyline fill="none" stroke="black" points="52,-0.5 52,-19"/>
<text text-anchor="middle" x="103.88" y="-6.45" font-family="Times,serif" font-size="9.00">node = 0x58f603a45b10</text>
<polyline fill="none" stroke="black" points="155.75,-0.5 155.75,-19"/>
<text text-anchor="middle" x="209.5" y="-6.45" font-family="Times,serif" font-size="9.00">parent = 0x58f603a45ab0</text>
<polyline fill="none" stroke="black" points="263.25,-0.5 263.25,-19"/>
<text text-anchor="middle" x="291.5" y="-6.45" font-family="Times,serif" font-size="9.00">right = (nil)</text>
</g>
<!-- node_0x58f603a45ab0&#45;&gt;node_0x58f603a45b10 -->
<g id="edge2" class="edge">
<title>node_0x58f603a45ab0&#45;&gt;node_0x58f603a45b10</title>
<path fill="none" stroke="red" d="M396.2,-74.02C351.58,-63.82 295.58,-51.02 249.3,-40.44"/>
<polygon fill="red" stroke="red" points="250.37,-37.09 239.84,-38.28 248.81,-43.92 250.37,-37.09"/>
</g>
<!-- node_0x58f603a45b40 -->
<g id="node4" class="node">
<title>node_0x58f603a45b40</title>
<polygon fill="#bdef9e" stroke="black" points="338,-0.5 338,-37.5 657.75,-37.5 657.75,-0.5 338,-0.5"/>
<text text-anchor="middle" x="497.88" y="-24.95" font-family="Times,serif" font-size="9.00">Попугай</text>
<polyline fill="none" stroke="black" points="338,-19 657.75,-19"/>
<text text-anchor="middle" x="364" y="-6.45" font-family="Times,serif" font-size="9.00">left = (nil)</text>
<polyline fill="none" stroke="black" points="390,-0.5 390,-19"/>
<text text-anchor="middle" x="441.88" y="-6.45" font-family="Times,serif" font-size="9.00">node = 0x58f603a45b40</text>
<polyline fill="none" stroke="black" points="493.75,-0.5 493.75,-19"/>
<text text-anchor="middle" x="547.5" y="-6.45" font-family="Times,serif" font-size="9.00">parent = 0x58f603a45ab0</text>
<polyline fill="none" stroke="black" points="601.25,-0.5 601.25,-19"/>
<text text-anchor="middle" x="629.5" y="-6.45" font-family="Times,serif" font-size="9.00">right = (nil)</text>
</g>
<!-- node_0x58f603a45ab0&#45;&gt;node_0x58f603a45b40 -->
<g id="edge3" class="edge">
<title>node_0x58f603a45ab0&#45;&gt;node_0x58f603a45b40</title>
<path fill="none" stroke="blue" d="M480.56,-74.2C483.02,-66.5 485.96,-57.29 488.72,-48.67"/>
<polygon fill="blue" stroke="blue" points="492.01,-49.88 491.71,-39.28 485.34,-47.75 492.01,-49.88"/>
</g>
<!-- node_0x58f603a45b70 -->
<g id="node6" class="node">
<title>node_0x58f603a45b70</title>
<polygon fill="#bdef9e" stroke="black" points="720.38,-0.5 720.38,-37.5 1039.38,-37.5 1039.38,-0.5 720.38,-0.5"/>
<text text-anchor="middle" x="879.88" y="-24.95" font-family="Times,serif" font-size="9.00">Ромашка</text>
<polyline fill="none" stroke="black" points="720.38,-19 1039.38,-19"/>
<text text-anchor="middle" x="746.38" y="-6.45" font-family="Times,serif" font-size="9.00">left = (nil)</text>
<polyline fill="none" stroke="black" points="772.38,-0.5 772.38,-19"/>
<text text-anchor="middle" x="824.25" y="-6.45" font-family="Times,serif" font-size="9.00">node = 0x58f603a45b70</text>
<polyline fill="none" stroke="black" points="876.12,-0.5 876.12,-19"/>
<text text-anchor="middle" x="929.5" y="-6.45" font-family="Times,serif" font-size="9.00">parent = 0x58f603a45ae0</text>
<polyline fill="none" stroke="black" points="982.88,-0.5 982.88,-19"/>
<text text-anchor="middle" x="1011.12" y="-6.45" font-family="Times,serif" font-size="9.00">right = (nil)</text>
</g>
<!-- node_0x58f603a45ae0&#45;&gt;node_0x58f603a45b70 -->
<g id="edge5" class="edge">
<title>node_0x58f603a45ae0&#45;&gt;node_0x58f603a45b70</title>
<path fill="none" stroke="red" d="M897.19,-74.2C894.73,-66.5 891.79,-57.29 889.03,-48.67"/>
<polygon fill="red" stroke="red" points="892.41,-47.75 886.04,-39.28 885.74,-49.88 892.41,-47.75"/>
</g>
<!-- node_0x58f603a45ba0 -->
<g id="node7" class="node">
<title>node_0x58f603a45ba0</title>
<polygon fill="#bdef9e" stroke="black" points="1057.75,-0.5 1057.75,-37.5 1376,-37.5 1376,-0.5 1057.75,-0.5"/>
<text text-anchor="middle" x="1216.88" y="-24.95" font-family="Times,serif" font-size="9.00">Гвоздь</text>
<polyline fill="none" stroke="black" points="1057.75,-19 1376,-19"/>
<text text-anchor="middle" x="1083.75" y="-6.45" font-family="Times,serif" font-size="9.00">left = (nil)</text>
<polyline fill="none" stroke="black" points="1109.75,-0.5 1109.75,-19"/>
<text text-anchor="middle" x="1161.25" y="-6.45" font-family="Times,serif" font-size="9.00">node = 0x58f603a45ba0</text>
<polyline fill="none" stroke="black" points="1212.75,-0.5 1212.75,-19"/>
<text text-anchor="middle" x="1266.12" y="-6.45" font-family="Times,serif" font-size="9.00">parent = 0x58f603a45ae0</text>
<polyline fill="none" stroke="black" points="1319.5,-0.5 1319.5,-19"/>
<text text-anchor="middle" x="1347.75" y="-6.45" font-family="Times,serif" font-size="9.00">right = (nil)</text>
</g>
<!-- node_0x58f603a45ae0&#45;&gt;node_0x58f603a45ba0 -->
<g id="edge6" class="edge">
<title>node_0x58f603a45ae0&#45;&gt;node_0x58f603a45ba0</title>
<path fill="none" stroke="blue" d="M981.3,-74.02C1025.69,-63.84 1081.36,-51.07 1127.44,-40.51"/>
<polygon fill="blue" stroke="blue" points="1128.19,-43.93 1137.16,-38.28 1126.63,-37.1 1128.19,-43.93"/>
</g>
</g>
</svg>
