<?xml version="1.0" encoding="UTF-8" standalone="no"?>
<!DOCTYPE svg PUBLIC "-//W3C//DTD SVG 1.1//EN"
 "http://www.w3.org/Graphics/SVG/1.1/DTD/svg11.dtd">
<!-- Generated by graphviz version 12.1.2 (0)
 -->
<!-- Pages: 1 -->
<svg width="1380pt" height="194pt"
 viewBox="0.00 0.00 1380.25 194.00" xmlns="http://www.w3.org/2000/svg" xmlns:xlink="http://www.w3.org/1999/xlink">
<g id="graph0" class="graph" transform="scale(1 1) rotate(0) translate(4 190)">
<polygon fill="white" stroke="none" points="-4,4 -4,-190 1376.25,-190 1376.25,4 -4,4"/>
<!-- node_0x60ea626f74a0 -->
<g id="node1" class="node">
<title>node_0x60ea626f74a0</title>
<polygon fill="yellow" stroke="black" points="505.25,-148.5 505.25,-185.5 867.75,-185.5 867.75,-148.5 505.25,-148.5"/>
<text text-anchor="middle" x="686.5" y="-172.95" font-family="Times,serif" font-size="9.00">Животное</text>
<polyline fill="none" stroke="black" points="505.25,-167 867.75,-167"/>
<text text-anchor="middle" x="553.75" y="-154.45" font-family="Times,serif" font-size="9.00">left = 0x60ea626f76b0</text>
<polyline fill="none" stroke="black" points="602.25,-148.5 602.25,-167"/>
<text text-anchor="middle" x="653.38" y="-154.45" font-family="Times,serif" font-size="9.00">node = 0x60ea626f74a0</text>
<polyline fill="none" stroke="black" points="704.5,-148.5 704.5,-167"/>
<text text-anchor="middle" x="735.75" y="-154.45" font-family="Times,serif" font-size="9.00">parent = (nil)</text>
<polyline fill="none" stroke="black" points="767,-148.5 767,-167"/>
<text text-anchor="middle" x="817.38" y="-154.45" font-family="Times,serif" font-size="9.00">right = 0x60ea626f76e0</text>
</g>
<!-- node_0x60ea626f76b0 -->
<g id="node2" class="node">
<title>node_0x60ea626f76b0</title>
<polygon fill="#bdef9e" stroke="black" points="269.38,-74.5 269.38,-111.5 677.62,-111.5 677.62,-74.5 269.38,-74.5"/>
<text text-anchor="middle" x="473.5" y="-98.95" font-family="Times,serif" font-size="9.00">Плавает</text>
<polyline fill="none" stroke="black" points="269.38,-93 677.62,-93"/>
<text text-anchor="middle" x="317.88" y="-80.45" font-family="Times,serif" font-size="9.00">left = 0x60ea626f7710</text>
<polyline fill="none" stroke="black" points="366.38,-74.5 366.38,-93"/>
<text text-anchor="middle" x="417.88" y="-80.45" font-family="Times,serif" font-size="9.00">node = 0x60ea626f76b0</text>
<polyline fill="none" stroke="black" points="469.38,-74.5 469.38,-93"/>
<text text-anchor="middle" x="522.75" y="-80.45" font-family="Times,serif" font-size="9.00">parent = 0x60ea626f74a0</text>
<polyline fill="none" stroke="black" points="576.12,-74.5 576.12,-93"/>
<text text-anchor="middle" x="626.88" y="-80.45" font-family="Times,serif" font-size="9.00">right = 0x60ea626f7740</text>
</g>
<!-- node_0x60ea626f74a0&#45;&gt;node_0x60ea626f76b0 -->
<g id="edge1" class="edge">
<title>node_0x60ea626f74a0&#45;&gt;node_0x60ea626f76b0</title>
<path fill="none" stroke="red" d="M633.3,-148.02C604.09,-138.14 567.67,-125.83 536.99,-115.46"/>
<polygon fill="red" stroke="red" points="538.42,-112.25 527.82,-112.36 536.18,-118.88 538.42,-112.25"/>
</g>
<!-- node_0x60ea626f76e0 -->
<g id="node5" class="node">
<title>node_0x60ea626f76e0</title>
<polygon fill="#bdef9e" stroke="black" points="696.12,-74.5 696.12,-111.5 1102.88,-111.5 1102.88,-74.5 696.12,-74.5"/>
<text text-anchor="middle" x="899.5" y="-98.95" font-family="Times,serif" font-size="9.00">Растение</text>
<polyline fill="none" stroke="black" points="696.12,-93 1102.88,-93"/>
<text text-anchor="middle" x="744.62" y="-80.45" font-family="Times,serif" font-size="9.00">left = 0x60ea626f7770</text>
<polyline fill="none" stroke="black" points="793.12,-74.5 793.12,-93"/>
<text text-anchor="middle" x="844.25" y="-80.45" font-family="Times,serif" font-size="9.00">node = 0x60ea626f76e0</text>
<polyline fill="none" stroke="black" points="895.38,-74.5 895.38,-93"/>
<text text-anchor="middle" x="948.75" y="-80.45" font-family="Times,serif" font-size="9.00">parent = 0x60ea626f74a0</text>
<polyline fill="none" stroke="black" points="1002.12,-74.5 1002.12,-93"/>
<text text-anchor="middle" x="1052.5" y="-80.45" font-family="Times,serif" font-size="9.00">right = 0x60ea626f77a0</text>
</g>
<!-- node_0x60ea626f74a0&#45;&gt;node_0x60ea626f76e0 -->
<g id="edge4" class="edge">
<title>node_0x60ea626f74a0&#45;&gt;node_0x60ea626f76e0</title>
<path fill="none" stroke="blue" d="M739.7,-148.02C768.91,-138.14 805.33,-125.83 836.01,-115.46"/>
<polygon fill="blue" stroke="blue" points="836.82,-118.88 845.18,-112.36 834.58,-112.25 836.82,-118.88"/>
</g>
<!-- node_0x60ea626f7710 -->
<g id="node3" class="node">
<title>node_0x60ea626f7710</title>
<polygon fill="#bdef9e" stroke="black" points="0,-0.5 0,-37.5 319,-37.5 319,-0.5 0,-0.5"/>
<text text-anchor="middle" x="159.5" y="-24.95" font-family="Times,serif" font-size="9.00">Кит</text>
<polyline fill="none" stroke="black" points="0,-19 319,-19"/>
<text text-anchor="middle" x="26" y="-6.45" font-family="Times,serif" font-size="9.00">left = (nil)</text>
<polyline fill="none" stroke="black" points="52,-0.5 52,-19"/>
<text text-anchor="middle" x="103.5" y="-6.45" font-family="Times,serif" font-size="9.00">node = 0x60ea626f7710</text>
<polyline fill="none" stroke="black" points="155,-0.5 155,-19"/>
<text text-anchor="middle" x="208.75" y="-6.45" font-family="Times,serif" font-size="9.00">parent = 0x60ea626f76b0</text>
<polyline fill="none" stroke="black" points="262.5,-0.5 262.5,-19"/>
<text text-anchor="middle" x="290.75" y="-6.45" font-family="Times,serif" font-size="9.00">right = (nil)</text>
</g>
<!-- node_0x60ea626f76b0&#45;&gt;node_0x60ea626f7710 -->
<g id="edge2" class="edge">
<title>node_0x60ea626f76b0&#45;&gt;node_0x60ea626f7710</title>
<path fill="none" stroke="red" d="M395.07,-74.02C350.69,-63.84 295.01,-51.07 248.93,-40.51"/>
<polygon fill="red" stroke="red" points="249.75,-37.1 239.22,-38.28 248.18,-43.93 249.75,-37.1"/>
</g>
<!-- node_0x60ea626f7740 -->
<g id="node4" class="node">
<title>node_0x60ea626f7740</title>
<polygon fill="#bdef9e" stroke="black" points="337,-0.5 337,-37.5 656,-37.5 656,-0.5 337,-0.5"/>
<text text-anchor="middle" x="496.5" y="-24.95" font-family="Times,serif" font-size="9.00">Попугай</text>
<polyline fill="none" stroke="black" points="337,-19 656,-19"/>
<text text-anchor="middle" x="363" y="-6.45" font-family="Times,serif" font-size="9.00">left = (nil)</text>
<polyline fill="none" stroke="black" points="389,-0.5 389,-19"/>
<text text-anchor="middle" x="440.5" y="-6.45" font-family="Times,serif" font-size="9.00">node = 0x60ea626f7740</text>
<polyline fill="none" stroke="black" points="492,-0.5 492,-19"/>
<text text-anchor="middle" x="545.75" y="-6.45" font-family="Times,serif" font-size="9.00">parent = 0x60ea626f76b0</text>
<polyline fill="none" stroke="black" points="599.5,-0.5 599.5,-19"/>
<text text-anchor="middle" x="627.75" y="-6.45" font-family="Times,serif" font-size="9.00">right = (nil)</text>
</g>
<!-- node_0x60ea626f76b0&#45;&gt;node_0x60ea626f7740 -->
<g id="edge3" class="edge">
<title>node_0x60ea626f76b0&#45;&gt;node_0x60ea626f7740</title>
<path fill="none" stroke="blue" d="M479.19,-74.2C481.65,-66.5 484.59,-57.29 487.34,-48.67"/>
<polygon fill="blue" stroke="blue" points="490.63,-49.88 490.34,-39.28 483.96,-47.75 490.63,-49.88"/>
</g>
<!-- node_0x60ea626f7770 -->
<g id="node6" class="node">
<title>node_0x60ea626f7770</title>
<polygon fill="#bdef9e" stroke="black" points="718.38,-0.5 718.38,-37.5 1036.62,-37.5 1036.62,-0.5 718.38,-0.5"/>
<text text-anchor="middle" x="877.5" y="-24.95" font-family="Times,serif" font-size="9.00">Ромашка</text>
<polyline fill="none" stroke="black" points="718.38,-19 1036.62,-19"/>
<text text-anchor="middle" x="744.38" y="-6.45" font-family="Times,serif" font-size="9.00">left = (nil)</text>
<polyline fill="none" stroke="black" points="770.38,-0.5 770.38,-19"/>
<text text-anchor="middle" x="821.88" y="-6.45" font-family="Times,serif" font-size="9.00">node = 0x60ea626f7770</text>
<polyline fill="none" stroke="black" points="873.38,-0.5 873.38,-19"/>
<text text-anchor="middle" x="926.75" y="-6.45" font-family="Times,serif" font-size="9.00">parent = 0x60ea626f76e0</text>
<polyline fill="none" stroke="black" points="980.12,-0.5 980.12,-19"/>
<text text-anchor="middle" x="1008.38" y="-6.45" font-family="Times,serif" font-size="9.00">right = (nil)</text>
</g>
<!-- node_0x60ea626f76e0&#45;&gt;node_0x60ea626f7770 -->
<g id="edge5" class="edge">
<title>node_0x60ea626f76e0&#45;&gt;node_0x60ea626f7770</title>
<path fill="none" stroke="red" d="M894.06,-74.2C891.71,-66.5 888.89,-57.29 886.26,-48.67"/>
<polygon fill="red" stroke="red" points="889.66,-47.83 883.39,-39.29 882.97,-49.88 889.66,-47.83"/>
</g>
<!-- node_0x60ea626f77a0 -->
<g id="node7" class="node">
<title>node_0x60ea626f77a0</title>
<polygon fill="#bdef9e" stroke="black" points="1054.75,-0.5 1054.75,-37.5 1372.25,-37.5 1372.25,-0.5 1054.75,-0.5"/>
<text text-anchor="middle" x="1213.5" y="-24.95" font-family="Times,serif" font-size="9.00">Гвоздь</text>
<polyline fill="none" stroke="black" points="1054.75,-19 1372.25,-19"/>
<text text-anchor="middle" x="1080.75" y="-6.45" font-family="Times,serif" font-size="9.00">left = (nil)</text>
<polyline fill="none" stroke="black" points="1106.75,-0.5 1106.75,-19"/>
<text text-anchor="middle" x="1157.88" y="-6.45" font-family="Times,serif" font-size="9.00">node = 0x60ea626f77a0</text>
<polyline fill="none" stroke="black" points="1209,-0.5 1209,-19"/>
<text text-anchor="middle" x="1262.38" y="-6.45" font-family="Times,serif" font-size="9.00">parent = 0x60ea626f76e0</text>
<polyline fill="none" stroke="black" points="1315.75,-0.5 1315.75,-19"/>
<text text-anchor="middle" x="1344" y="-6.45" font-family="Times,serif" font-size="9.00">right = (nil)</text>
</g>
<!-- node_0x60ea626f76e0&#45;&gt;node_0x60ea626f77a0 -->
<g id="edge6" class="edge">
<title>node_0x60ea626f76e0&#45;&gt;node_0x60ea626f77a0</title>
<path fill="none" stroke="blue" d="M977.93,-74.02C1022.31,-63.84 1077.99,-51.07 1124.07,-40.51"/>
<polygon fill="blue" stroke="blue" points="1124.82,-43.93 1133.78,-38.28 1123.25,-37.1 1124.82,-43.93"/>
</g>
</g>
</svg>
