<?xml version="1.0" encoding="UTF-8" standalone="no"?>
<!DOCTYPE svg PUBLIC "-//W3C//DTD SVG 1.1//EN"
 "http://www.w3.org/Graphics/SVG/1.1/DTD/svg11.dtd">
<!-- Generated by graphviz version 12.1.2 (0)
 -->
<!-- Pages: 1 -->
<svg width="1407pt" height="194pt"
 viewBox="0.00 0.00 1407.25 194.00" xmlns="http://www.w3.org/2000/svg" xmlns:xlink="http://www.w3.org/1999/xlink">
<g id="graph0" class="graph" transform="scale(1 1) rotate(0) translate(4 190)">
<polygon fill="white" stroke="none" points="-4,4 -4,-190 1403.25,-190 1403.25,4 -4,4"/>
<!-- node_0x62b6348b94a0 -->
<g id="node1" class="node">
<title>node_0x62b6348b94a0</title>
<polygon fill="yellow" stroke="black" points="514.75,-148.5 514.75,-185.5 886.25,-185.5 886.25,-148.5 514.75,-148.5"/>
<text text-anchor="middle" x="700.5" y="-172.95" font-family="Times,serif" font-size="9.00">Животное</text>
<polyline fill="none" stroke="black" points="514.75,-167 886.25,-167"/>
<text text-anchor="middle" x="564.75" y="-154.45" font-family="Times,serif" font-size="9.00">left = 0x62b6348b96b0</text>
<polyline fill="none" stroke="black" points="614.75,-148.5 614.75,-167"/>
<text text-anchor="middle" x="667.38" y="-154.45" font-family="Times,serif" font-size="9.00">node = 0x62b6348b94a0</text>
<polyline fill="none" stroke="black" points="720,-148.5 720,-167"/>
<text text-anchor="middle" x="751.25" y="-154.45" font-family="Times,serif" font-size="9.00">parent = (nil)</text>
<polyline fill="none" stroke="black" points="782.5,-148.5 782.5,-167"/>
<text text-anchor="middle" x="834.38" y="-154.45" font-family="Times,serif" font-size="9.00">right = 0x62b6348b96e0</text>
</g>
<!-- node_0x62b6348b96b0 -->
<g id="node2" class="node">
<title>node_0x62b6348b96b0</title>
<polygon fill="#bdef9e" stroke="black" points="271.38,-74.5 271.38,-111.5 691.62,-111.5 691.62,-74.5 271.38,-74.5"/>
<text text-anchor="middle" x="481.5" y="-98.95" font-family="Times,serif" font-size="9.00">Плавает</text>
<polyline fill="none" stroke="black" points="271.38,-93 691.62,-93"/>
<text text-anchor="middle" x="321.38" y="-80.45" font-family="Times,serif" font-size="9.00">left = 0x62b6348b9710</text>
<polyline fill="none" stroke="black" points="371.38,-74.5 371.38,-93"/>
<text text-anchor="middle" x="424.38" y="-80.45" font-family="Times,serif" font-size="9.00">node = 0x62b6348b96b0</text>
<polyline fill="none" stroke="black" points="477.38,-74.5 477.38,-93"/>
<text text-anchor="middle" x="532.25" y="-80.45" font-family="Times,serif" font-size="9.00">parent = 0x62b6348b94a0</text>
<polyline fill="none" stroke="black" points="587.12,-74.5 587.12,-93"/>
<text text-anchor="middle" x="639.38" y="-80.45" font-family="Times,serif" font-size="9.00">right = 0x62b6348b9740</text>
</g>
<!-- node_0x62b6348b94a0&#45;&gt;node_0x62b6348b96b0 -->
<g id="edge1" class="edge">
<title>node_0x62b6348b94a0&#45;&gt;node_0x62b6348b96b0</title>
<path fill="none" stroke="red" d="M645.8,-148.02C615.77,-138.14 578.33,-125.83 546.77,-115.46"/>
<polygon fill="red" stroke="red" points="547.91,-112.15 537.32,-112.35 545.72,-118.8 547.91,-112.15"/>
</g>
<!-- node_0x62b6348b96e0 -->
<g id="node5" class="node">
<title>node_0x62b6348b96e0</title>
<polygon fill="#bdef9e" stroke="black" points="710.12,-74.5 710.12,-111.5 1128.88,-111.5 1128.88,-74.5 710.12,-74.5"/>
<text text-anchor="middle" x="919.5" y="-98.95" font-family="Times,serif" font-size="9.00">Растение</text>
<polyline fill="none" stroke="black" points="710.12,-93 1128.88,-93"/>
<text text-anchor="middle" x="760.12" y="-80.45" font-family="Times,serif" font-size="9.00">left = 0x62b6348b9770</text>
<polyline fill="none" stroke="black" points="810.12,-74.5 810.12,-93"/>
<text text-anchor="middle" x="862.75" y="-80.45" font-family="Times,serif" font-size="9.00">node = 0x62b6348b96e0</text>
<polyline fill="none" stroke="black" points="915.38,-74.5 915.38,-93"/>
<text text-anchor="middle" x="970.25" y="-80.45" font-family="Times,serif" font-size="9.00">parent = 0x62b6348b94a0</text>
<polyline fill="none" stroke="black" points="1025.12,-74.5 1025.12,-93"/>
<text text-anchor="middle" x="1077" y="-80.45" font-family="Times,serif" font-size="9.00">right = 0x62b6348b97a0</text>
</g>
<!-- node_0x62b6348b94a0&#45;&gt;node_0x62b6348b96e0 -->
<g id="edge4" class="edge">
<title>node_0x62b6348b94a0&#45;&gt;node_0x62b6348b96e0</title>
<path fill="none" stroke="blue" d="M755.2,-148.02C785.23,-138.14 822.67,-125.83 854.23,-115.46"/>
<polygon fill="blue" stroke="blue" points="855.28,-118.8 863.68,-112.35 853.09,-112.15 855.28,-118.8"/>
</g>
<!-- node_0x62b6348b9710 -->
<g id="node3" class="node">
<title>node_0x62b6348b9710</title>
<polygon fill="#bdef9e" stroke="black" points="0,-0.5 0,-37.5 325,-37.5 325,-0.5 0,-0.5"/>
<text text-anchor="middle" x="162.5" y="-24.95" font-family="Times,serif" font-size="9.00">Кит</text>
<polyline fill="none" stroke="black" points="0,-19 325,-19"/>
<text text-anchor="middle" x="26" y="-6.45" font-family="Times,serif" font-size="9.00">left = (nil)</text>
<polyline fill="none" stroke="black" points="52,-0.5 52,-19"/>
<text text-anchor="middle" x="105" y="-6.45" font-family="Times,serif" font-size="9.00">node = 0x62b6348b9710</text>
<polyline fill="none" stroke="black" points="158,-0.5 158,-19"/>
<text text-anchor="middle" x="213.25" y="-6.45" font-family="Times,serif" font-size="9.00">parent = 0x62b6348b96b0</text>
<polyline fill="none" stroke="black" points="268.5,-0.5 268.5,-19"/>
<text text-anchor="middle" x="296.75" y="-6.45" font-family="Times,serif" font-size="9.00">right = (nil)</text>
</g>
<!-- node_0x62b6348b96b0&#45;&gt;node_0x62b6348b9710 -->
<g id="edge2" class="edge">
<title>node_0x62b6348b96b0&#45;&gt;node_0x62b6348b9710</title>
<path fill="none" stroke="red" d="M401.83,-74.02C356.64,-63.82 299.93,-51.02 253.06,-40.44"/>
<polygon fill="red" stroke="red" points="253.99,-37.06 243.46,-38.27 252.45,-43.89 253.99,-37.06"/>
</g>
<!-- node_0x62b6348b9740 -->
<g id="node4" class="node">
<title>node_0x62b6348b9740</title>
<polygon fill="#bdef9e" stroke="black" points="343,-0.5 343,-37.5 668,-37.5 668,-0.5 343,-0.5"/>
<text text-anchor="middle" x="505.5" y="-24.95" font-family="Times,serif" font-size="9.00">Попугай</text>
<polyline fill="none" stroke="black" points="343,-19 668,-19"/>
<text text-anchor="middle" x="369" y="-6.45" font-family="Times,serif" font-size="9.00">left = (nil)</text>
<polyline fill="none" stroke="black" points="395,-0.5 395,-19"/>
<text text-anchor="middle" x="448" y="-6.45" font-family="Times,serif" font-size="9.00">node = 0x62b6348b9740</text>
<polyline fill="none" stroke="black" points="501,-0.5 501,-19"/>
<text text-anchor="middle" x="556.25" y="-6.45" font-family="Times,serif" font-size="9.00">parent = 0x62b6348b96b0</text>
<polyline fill="none" stroke="black" points="611.5,-0.5 611.5,-19"/>
<text text-anchor="middle" x="639.75" y="-6.45" font-family="Times,serif" font-size="9.00">right = (nil)</text>
</g>
<!-- node_0x62b6348b96b0&#45;&gt;node_0x62b6348b9740 -->
<g id="edge3" class="edge">
<title>node_0x62b6348b96b0&#45;&gt;node_0x62b6348b9740</title>
<path fill="none" stroke="blue" d="M487.43,-74.2C490,-66.5 493.07,-57.29 495.94,-48.67"/>
<polygon fill="blue" stroke="blue" points="499.23,-49.87 499.07,-39.28 492.59,-47.66 499.23,-49.87"/>
</g>
<!-- node_0x62b6348b9770 -->
<g id="node6" class="node">
<title>node_0x62b6348b9770</title>
<polygon fill="#bdef9e" stroke="black" points="733.38,-0.5 733.38,-37.5 1057.62,-37.5 1057.62,-0.5 733.38,-0.5"/>
<text text-anchor="middle" x="895.5" y="-24.95" font-family="Times,serif" font-size="9.00">Ромашка</text>
<polyline fill="none" stroke="black" points="733.38,-19 1057.62,-19"/>
<text text-anchor="middle" x="759.38" y="-6.45" font-family="Times,serif" font-size="9.00">left = (nil)</text>
<polyline fill="none" stroke="black" points="785.38,-0.5 785.38,-19"/>
<text text-anchor="middle" x="838.38" y="-6.45" font-family="Times,serif" font-size="9.00">node = 0x62b6348b9770</text>
<polyline fill="none" stroke="black" points="891.38,-0.5 891.38,-19"/>
<text text-anchor="middle" x="946.25" y="-6.45" font-family="Times,serif" font-size="9.00">parent = 0x62b6348b96e0</text>
<polyline fill="none" stroke="black" points="1001.12,-0.5 1001.12,-19"/>
<text text-anchor="middle" x="1029.38" y="-6.45" font-family="Times,serif" font-size="9.00">right = (nil)</text>
</g>
<!-- node_0x62b6348b96e0&#45;&gt;node_0x62b6348b9770 -->
<g id="edge5" class="edge">
<title>node_0x62b6348b96e0&#45;&gt;node_0x62b6348b9770</title>
<path fill="none" stroke="red" d="M913.57,-74.2C911,-66.5 907.93,-57.29 905.06,-48.67"/>
<polygon fill="red" stroke="red" points="908.41,-47.66 901.93,-39.28 901.77,-49.87 908.41,-47.66"/>
</g>
<!-- node_0x62b6348b97a0 -->
<g id="node7" class="node">
<title>node_0x62b6348b97a0</title>
<polygon fill="#bdef9e" stroke="black" points="1075.75,-0.5 1075.75,-37.5 1399.25,-37.5 1399.25,-0.5 1075.75,-0.5"/>
<text text-anchor="middle" x="1237.5" y="-24.95" font-family="Times,serif" font-size="9.00">Гвоздь</text>
<polyline fill="none" stroke="black" points="1075.75,-19 1399.25,-19"/>
<text text-anchor="middle" x="1101.75" y="-6.45" font-family="Times,serif" font-size="9.00">left = (nil)</text>
<polyline fill="none" stroke="black" points="1127.75,-0.5 1127.75,-19"/>
<text text-anchor="middle" x="1180.38" y="-6.45" font-family="Times,serif" font-size="9.00">node = 0x62b6348b97a0</text>
<polyline fill="none" stroke="black" points="1233,-0.5 1233,-19"/>
<text text-anchor="middle" x="1287.88" y="-6.45" font-family="Times,serif" font-size="9.00">parent = 0x62b6348b96e0</text>
<polyline fill="none" stroke="black" points="1342.75,-0.5 1342.75,-19"/>
<text text-anchor="middle" x="1371" y="-6.45" font-family="Times,serif" font-size="9.00">right = (nil)</text>
</g>
<!-- node_0x62b6348b96e0&#45;&gt;node_0x62b6348b97a0 -->
<g id="edge6" class="edge">
<title>node_0x62b6348b96e0&#45;&gt;node_0x62b6348b97a0</title>
<path fill="none" stroke="blue" d="M998.92,-74.02C1043.97,-63.82 1100.5,-51.02 1147.22,-40.44"/>
<polygon fill="blue" stroke="blue" points="1147.81,-43.9 1156.79,-38.27 1146.26,-37.07 1147.81,-43.9"/>
</g>
</g>
</svg>
