<?xml version="1.0" encoding="UTF-8" standalone="no"?>
<!DOCTYPE svg PUBLIC "-//W3C//DTD SVG 1.1//EN"
 "http://www.w3.org/Graphics/SVG/1.1/DTD/svg11.dtd">
<!-- Generated by graphviz version 12.1.2 (0)
 -->
<!-- Pages: 1 -->
<svg width="1613pt" height="416pt"
 viewBox="0.00 0.00 1612.88 416.00" xmlns="http://www.w3.org/2000/svg" xmlns:xlink="http://www.w3.org/1999/xlink">
<g id="graph0" class="graph" transform="scale(1 1) rotate(0) translate(4 412)">
<polygon fill="white" stroke="none" points="-4,4 -4,-412 1608.88,-412 1608.88,4 -4,4"/>
<!-- node_0x5d30d9f3f8a0 -->
<g id="node1" class="node">
<title>node_0x5d30d9f3f8a0</title>
<polygon fill="yellow" stroke="black" points="504.88,-370.5 504.88,-407.5 868.12,-407.5 868.12,-370.5 504.88,-370.5"/>
<text text-anchor="middle" x="686.5" y="-394.95" font-family="Times,serif" font-size="9.00">Животное</text>
<polyline fill="none" stroke="black" points="504.88,-389 868.12,-389"/>
<text text-anchor="middle" x="553.38" y="-376.45" font-family="Times,serif" font-size="9.00">left = 0x5d30d9f3f8d0</text>
<polyline fill="none" stroke="black" points="601.88,-370.5 601.88,-389"/>
<text text-anchor="middle" x="653" y="-376.45" font-family="Times,serif" font-size="9.00">node = 0x5d30d9f3f8a0</text>
<polyline fill="none" stroke="black" points="704.12,-370.5 704.12,-389"/>
<text text-anchor="middle" x="735.38" y="-376.45" font-family="Times,serif" font-size="9.00">parent = (nil)</text>
<polyline fill="none" stroke="black" points="766.62,-370.5 766.62,-389"/>
<text text-anchor="middle" x="817.38" y="-376.45" font-family="Times,serif" font-size="9.00">right = 0x5d30d9f3f960</text>
</g>
<!-- node_0x5d30d9f3f8d0 -->
<g id="node2" class="node">
<title>node_0x5d30d9f3f8d0</title>
<polygon fill="#bdef9e" stroke="black" points="269.38,-296.5 269.38,-333.5 677.62,-333.5 677.62,-296.5 269.38,-296.5"/>
<text text-anchor="middle" x="473.5" y="-320.95" font-family="Times,serif" font-size="9.00">Плавает</text>
<polyline fill="none" stroke="black" points="269.38,-315 677.62,-315"/>
<text text-anchor="middle" x="317.88" y="-302.45" font-family="Times,serif" font-size="9.00">left = 0x5d30d9f3f900</text>
<polyline fill="none" stroke="black" points="366.38,-296.5 366.38,-315"/>
<text text-anchor="middle" x="417.88" y="-302.45" font-family="Times,serif" font-size="9.00">node = 0x5d30d9f3f8d0</text>
<polyline fill="none" stroke="black" points="469.38,-296.5 469.38,-315"/>
<text text-anchor="middle" x="522.75" y="-302.45" font-family="Times,serif" font-size="9.00">parent = 0x5d30d9f3f8a0</text>
<polyline fill="none" stroke="black" points="576.12,-296.5 576.12,-315"/>
<text text-anchor="middle" x="626.88" y="-302.45" font-family="Times,serif" font-size="9.00">right = 0x5d30d9f3f930</text>
</g>
<!-- node_0x5d30d9f3f8a0&#45;&gt;node_0x5d30d9f3f8d0 -->
<g id="edge1" class="edge">
<title>node_0x5d30d9f3f8a0&#45;&gt;node_0x5d30d9f3f8d0</title>
<path fill="none" stroke="red" d="M633.3,-370.02C604.09,-360.14 567.67,-347.83 536.99,-337.46"/>
<polygon fill="red" stroke="red" points="538.42,-334.25 527.82,-334.36 536.18,-340.88 538.42,-334.25"/>
</g>
<!-- node_0x5d30d9f3f960 -->
<g id="node5" class="node">
<title>node_0x5d30d9f3f960</title>
<polygon fill="#bdef9e" stroke="black" points="695.75,-296.5 695.75,-333.5 1103.25,-333.5 1103.25,-296.5 695.75,-296.5"/>
<text text-anchor="middle" x="899.5" y="-320.95" font-family="Times,serif" font-size="9.00">Растение</text>
<polyline fill="none" stroke="black" points="695.75,-315 1103.25,-315"/>
<text text-anchor="middle" x="744.25" y="-302.45" font-family="Times,serif" font-size="9.00">left = 0x5d30d9f3f990</text>
<polyline fill="none" stroke="black" points="792.75,-296.5 792.75,-315"/>
<text text-anchor="middle" x="844.25" y="-302.45" font-family="Times,serif" font-size="9.00">node = 0x5d30d9f3f960</text>
<polyline fill="none" stroke="black" points="895.75,-296.5 895.75,-315"/>
<text text-anchor="middle" x="949.12" y="-302.45" font-family="Times,serif" font-size="9.00">parent = 0x5d30d9f3f8a0</text>
<polyline fill="none" stroke="black" points="1002.5,-296.5 1002.5,-315"/>
<text text-anchor="middle" x="1052.88" y="-302.45" font-family="Times,serif" font-size="9.00">right = 0x5d30d9f3f9c0</text>
</g>
<!-- node_0x5d30d9f3f8a0&#45;&gt;node_0x5d30d9f3f960 -->
<g id="edge4" class="edge">
<title>node_0x5d30d9f3f8a0&#45;&gt;node_0x5d30d9f3f960</title>
<path fill="none" stroke="blue" d="M739.7,-370.02C768.91,-360.14 805.33,-347.83 836.01,-337.46"/>
<polygon fill="blue" stroke="blue" points="836.82,-340.88 845.18,-334.36 834.58,-334.25 836.82,-340.88"/>
</g>
<!-- node_0x5d30d9f3f900 -->
<g id="node3" class="node">
<title>node_0x5d30d9f3f900</title>
<polygon fill="#bdef9e" stroke="black" points="0,-222.5 0,-259.5 319,-259.5 319,-222.5 0,-222.5"/>
<text text-anchor="middle" x="159.5" y="-246.95" font-family="Times,serif" font-size="9.00">Кит</text>
<polyline fill="none" stroke="black" points="0,-241 319,-241"/>
<text text-anchor="middle" x="26" y="-228.45" font-family="Times,serif" font-size="9.00">left = (nil)</text>
<polyline fill="none" stroke="black" points="52,-222.5 52,-241"/>
<text text-anchor="middle" x="103.5" y="-228.45" font-family="Times,serif" font-size="9.00">node = 0x5d30d9f3f900</text>
<polyline fill="none" stroke="black" points="155,-222.5 155,-241"/>
<text text-anchor="middle" x="208.75" y="-228.45" font-family="Times,serif" font-size="9.00">parent = 0x5d30d9f3f8d0</text>
<polyline fill="none" stroke="black" points="262.5,-222.5 262.5,-241"/>
<text text-anchor="middle" x="290.75" y="-228.45" font-family="Times,serif" font-size="9.00">right = (nil)</text>
</g>
<!-- node_0x5d30d9f3f8d0&#45;&gt;node_0x5d30d9f3f900 -->
<g id="edge2" class="edge">
<title>node_0x5d30d9f3f8d0&#45;&gt;node_0x5d30d9f3f900</title>
<path fill="none" stroke="red" d="M395.07,-296.02C350.69,-285.84 295.01,-273.07 248.93,-262.51"/>
<polygon fill="red" stroke="red" points="249.75,-259.1 239.22,-260.28 248.18,-265.93 249.75,-259.1"/>
</g>
<!-- node_0x5d30d9f3f930 -->
<g id="node4" class="node">
<title>node_0x5d30d9f3f930</title>
<polygon fill="#bdef9e" stroke="black" points="337,-222.5 337,-259.5 656,-259.5 656,-222.5 337,-222.5"/>
<text text-anchor="middle" x="496.5" y="-246.95" font-family="Times,serif" font-size="9.00">Попугай</text>
<polyline fill="none" stroke="black" points="337,-241 656,-241"/>
<text text-anchor="middle" x="363" y="-228.45" font-family="Times,serif" font-size="9.00">left = (nil)</text>
<polyline fill="none" stroke="black" points="389,-222.5 389,-241"/>
<text text-anchor="middle" x="440.5" y="-228.45" font-family="Times,serif" font-size="9.00">node = 0x5d30d9f3f930</text>
<polyline fill="none" stroke="black" points="492,-222.5 492,-241"/>
<text text-anchor="middle" x="545.75" y="-228.45" font-family="Times,serif" font-size="9.00">parent = 0x5d30d9f3f8d0</text>
<polyline fill="none" stroke="black" points="599.5,-222.5 599.5,-241"/>
<text text-anchor="middle" x="627.75" y="-228.45" font-family="Times,serif" font-size="9.00">right = (nil)</text>
</g>
<!-- node_0x5d30d9f3f8d0&#45;&gt;node_0x5d30d9f3f930 -->
<g id="edge3" class="edge">
<title>node_0x5d30d9f3f8d0&#45;&gt;node_0x5d30d9f3f930</title>
<path fill="none" stroke="blue" d="M479.19,-296.2C481.65,-288.5 484.59,-279.29 487.34,-270.67"/>
<polygon fill="blue" stroke="blue" points="490.63,-271.88 490.34,-261.28 483.96,-269.75 490.63,-271.88"/>
</g>
<!-- node_0x5d30d9f3f990 -->
<g id="node6" class="node">
<title>node_0x5d30d9f3f990</title>
<polygon fill="#bdef9e" stroke="black" points="718,-222.5 718,-259.5 1037,-259.5 1037,-222.5 718,-222.5"/>
<text text-anchor="middle" x="877.5" y="-246.95" font-family="Times,serif" font-size="9.00">Ромашка</text>
<polyline fill="none" stroke="black" points="718,-241 1037,-241"/>
<text text-anchor="middle" x="744" y="-228.45" font-family="Times,serif" font-size="9.00">left = (nil)</text>
<polyline fill="none" stroke="black" points="770,-222.5 770,-241"/>
<text text-anchor="middle" x="821.5" y="-228.45" font-family="Times,serif" font-size="9.00">node = 0x5d30d9f3f990</text>
<polyline fill="none" stroke="black" points="873,-222.5 873,-241"/>
<text text-anchor="middle" x="926.75" y="-228.45" font-family="Times,serif" font-size="9.00">parent = 0x5d30d9f3f960</text>
<polyline fill="none" stroke="black" points="980.5,-222.5 980.5,-241"/>
<text text-anchor="middle" x="1008.75" y="-228.45" font-family="Times,serif" font-size="9.00">right = (nil)</text>
</g>
<!-- node_0x5d30d9f3f960&#45;&gt;node_0x5d30d9f3f990 -->
<g id="edge5" class="edge">
<title>node_0x5d30d9f3f960&#45;&gt;node_0x5d30d9f3f990</title>
<path fill="none" stroke="red" d="M894.06,-296.2C891.71,-288.5 888.89,-279.29 886.26,-270.67"/>
<polygon fill="red" stroke="red" points="889.66,-269.83 883.39,-261.29 882.97,-271.88 889.66,-269.83"/>
</g>
<!-- node_0x5d30d9f3f9c0 -->
<g id="node7" class="node">
<title>node_0x5d30d9f3f9c0</title>
<polygon fill="#bdef9e" stroke="black" points="1054.88,-222.5 1054.88,-259.5 1460.12,-259.5 1460.12,-222.5 1054.88,-222.5"/>
<text text-anchor="middle" x="1257.5" y="-246.95" font-family="Times,serif" font-size="9.00">Светит</text>
<polyline fill="none" stroke="black" points="1054.88,-241 1460.12,-241"/>
<text text-anchor="middle" x="1102.62" y="-228.45" font-family="Times,serif" font-size="9.00">left = 0x5d30d9f3f9f0</text>
<polyline fill="none" stroke="black" points="1150.38,-222.5 1150.38,-241"/>
<text text-anchor="middle" x="1201.5" y="-228.45" font-family="Times,serif" font-size="9.00">node = 0x5d30d9f3f9c0</text>
<polyline fill="none" stroke="black" points="1252.62,-222.5 1252.62,-241"/>
<text text-anchor="middle" x="1306.38" y="-228.45" font-family="Times,serif" font-size="9.00">parent = 0x5d30d9f3f960</text>
<polyline fill="none" stroke="black" points="1360.12,-222.5 1360.12,-241"/>
<text text-anchor="middle" x="1410.12" y="-228.45" font-family="Times,serif" font-size="9.00">right = 0x5d30d9f3fae0</text>
</g>
<!-- node_0x5d30d9f3f960&#45;&gt;node_0x5d30d9f3f9c0 -->
<g id="edge6" class="edge">
<title>node_0x5d30d9f3f960&#45;&gt;node_0x5d30d9f3f9c0</title>
<path fill="none" stroke="blue" d="M988.92,-296.02C1040.06,-285.73 1104.34,-272.8 1157.2,-262.17"/>
<polygon fill="blue" stroke="blue" points="1157.7,-265.64 1166.81,-260.24 1156.32,-258.78 1157.7,-265.64"/>
</g>
<!-- node_0x5d30d9f3f9f0 -->
<g id="node8" class="node">
<title>node_0x5d30d9f3f9f0</title>
<polygon fill="#bdef9e" stroke="black" points="864.88,-148.5 864.88,-185.5 1270.12,-185.5 1270.12,-148.5 864.88,-148.5"/>
<text text-anchor="middle" x="1067.5" y="-172.95" font-family="Times,serif" font-size="9.00">Горячий</text>
<polyline fill="none" stroke="black" points="864.88,-167 1270.12,-167"/>
<text text-anchor="middle" x="913" y="-154.45" font-family="Times,serif" font-size="9.00">left = 0x5d30d9f3fa20</text>
<polyline fill="none" stroke="black" points="961.12,-148.5 961.12,-167"/>
<text text-anchor="middle" x="1011.88" y="-154.45" font-family="Times,serif" font-size="9.00">node = 0x5d30d9f3f9f0</text>
<polyline fill="none" stroke="black" points="1062.62,-148.5 1062.62,-167"/>
<text text-anchor="middle" x="1116" y="-154.45" font-family="Times,serif" font-size="9.00">parent = 0x5d30d9f3f9c0</text>
<polyline fill="none" stroke="black" points="1169.38,-148.5 1169.38,-167"/>
<text text-anchor="middle" x="1219.75" y="-154.45" font-family="Times,serif" font-size="9.00">right = 0x5d30d9f3fa50</text>
</g>
<!-- node_0x5d30d9f3f9c0&#45;&gt;node_0x5d30d9f3f9f0 -->
<g id="edge7" class="edge">
<title>node_0x5d30d9f3f9c0&#45;&gt;node_0x5d30d9f3f9f0</title>
<path fill="none" stroke="red" d="M1210.05,-222.02C1184.33,-212.27 1152.36,-200.16 1125.21,-189.87"/>
<polygon fill="red" stroke="red" points="1126.69,-186.69 1116.09,-186.41 1124.21,-193.23 1126.69,-186.69"/>
</g>
<!-- node_0x5d30d9f3fae0 -->
<g id="node13" class="node">
<title>node_0x5d30d9f3fae0</title>
<polygon fill="#bdef9e" stroke="black" points="1288.12,-148.5 1288.12,-185.5 1604.88,-185.5 1604.88,-148.5 1288.12,-148.5"/>
<text text-anchor="middle" x="1446.5" y="-172.95" font-family="Times,serif" font-size="9.00">Гвоздь</text>
<polyline fill="none" stroke="black" points="1288.12,-167 1604.88,-167"/>
<text text-anchor="middle" x="1314.12" y="-154.45" font-family="Times,serif" font-size="9.00">left = (nil)</text>
<polyline fill="none" stroke="black" points="1340.12,-148.5 1340.12,-167"/>
<text text-anchor="middle" x="1390.88" y="-154.45" font-family="Times,serif" font-size="9.00">node = 0x5d30d9f3fae0</text>
<polyline fill="none" stroke="black" points="1441.62,-148.5 1441.62,-167"/>
<text text-anchor="middle" x="1495" y="-154.45" font-family="Times,serif" font-size="9.00">parent = 0x5d30d9f3f9c0</text>
<polyline fill="none" stroke="black" points="1548.38,-148.5 1548.38,-167"/>
<text text-anchor="middle" x="1576.62" y="-154.45" font-family="Times,serif" font-size="9.00">right = (nil)</text>
</g>
<!-- node_0x5d30d9f3f9c0&#45;&gt;node_0x5d30d9f3fae0 -->
<g id="edge12" class="edge">
<title>node_0x5d30d9f3f9c0&#45;&gt;node_0x5d30d9f3fae0</title>
<path fill="none" stroke="blue" d="M1304.71,-222.02C1330.28,-212.27 1362.09,-200.16 1389.1,-189.87"/>
<polygon fill="blue" stroke="blue" points="1390.06,-193.25 1398.15,-186.42 1387.56,-186.71 1390.06,-193.25"/>
</g>
<!-- node_0x5d30d9f3fa20 -->
<g id="node9" class="node">
<title>node_0x5d30d9f3fa20</title>
<polygon fill="#bdef9e" stroke="black" points="720.12,-74.5 720.12,-111.5 1036.88,-111.5 1036.88,-74.5 720.12,-74.5"/>
<text text-anchor="middle" x="878.5" y="-98.95" font-family="Times,serif" font-size="9.00">Солнце</text>
<polyline fill="none" stroke="black" points="720.12,-93 1036.88,-93"/>
<text text-anchor="middle" x="746.12" y="-80.45" font-family="Times,serif" font-size="9.00">left = (nil)</text>
<polyline fill="none" stroke="black" points="772.12,-74.5 772.12,-93"/>
<text text-anchor="middle" x="823.25" y="-80.45" font-family="Times,serif" font-size="9.00">node = 0x5d30d9f3fa20</text>
<polyline fill="none" stroke="black" points="874.38,-74.5 874.38,-93"/>
<text text-anchor="middle" x="927.38" y="-80.45" font-family="Times,serif" font-size="9.00">parent = 0x5d30d9f3f9f0</text>
<polyline fill="none" stroke="black" points="980.38,-74.5 980.38,-93"/>
<text text-anchor="middle" x="1008.62" y="-80.45" font-family="Times,serif" font-size="9.00">right = (nil)</text>
</g>
<!-- node_0x5d30d9f3f9f0&#45;&gt;node_0x5d30d9f3fa20 -->
<g id="edge8" class="edge">
<title>node_0x5d30d9f3f9f0&#45;&gt;node_0x5d30d9f3fa20</title>
<path fill="none" stroke="red" d="M1020.29,-148.02C994.72,-138.27 962.91,-126.16 935.9,-115.87"/>
<polygon fill="red" stroke="red" points="937.44,-112.71 926.85,-112.42 934.94,-119.25 937.44,-112.71"/>
</g>
<!-- node_0x5d30d9f3fa50 -->
<g id="node10" class="node">
<title>node_0x5d30d9f3fa50</title>
<polygon fill="#bdef9e" stroke="black" points="1054.88,-74.5 1054.88,-111.5 1460.12,-111.5 1460.12,-74.5 1054.88,-74.5"/>
<text text-anchor="middle" x="1257.5" y="-98.95" font-family="Times,serif" font-size="9.00">Круглый</text>
<polyline fill="none" stroke="black" points="1054.88,-93 1460.12,-93"/>
<text text-anchor="middle" x="1103" y="-80.45" font-family="Times,serif" font-size="9.00">left = 0x5d30d9f3fa80</text>
<polyline fill="none" stroke="black" points="1151.12,-74.5 1151.12,-93"/>
<text text-anchor="middle" x="1202.25" y="-80.45" font-family="Times,serif" font-size="9.00">node = 0x5d30d9f3fa50</text>
<polyline fill="none" stroke="black" points="1253.38,-74.5 1253.38,-93"/>
<text text-anchor="middle" x="1306.38" y="-80.45" font-family="Times,serif" font-size="9.00">parent = 0x5d30d9f3f9f0</text>
<polyline fill="none" stroke="black" points="1359.38,-74.5 1359.38,-93"/>
<text text-anchor="middle" x="1409.75" y="-80.45" font-family="Times,serif" font-size="9.00">right = 0x5d30d9f3fab0</text>
</g>
<!-- node_0x5d30d9f3f9f0&#45;&gt;node_0x5d30d9f3fa50 -->
<g id="edge9" class="edge">
<title>node_0x5d30d9f3f9f0&#45;&gt;node_0x5d30d9f3fa50</title>
<path fill="none" stroke="blue" d="M1114.95,-148.02C1140.67,-138.27 1172.64,-126.16 1199.79,-115.87"/>
<polygon fill="blue" stroke="blue" points="1200.79,-119.23 1208.91,-112.41 1198.31,-112.69 1200.79,-119.23"/>
</g>
<!-- node_0x5d30d9f3fa80 -->
<g id="node11" class="node">
<title>node_0x5d30d9f3fa80</title>
<polygon fill="#bdef9e" stroke="black" points="930.75,-0.5 930.75,-37.5 1248.25,-37.5 1248.25,-0.5 930.75,-0.5"/>
<text text-anchor="middle" x="1089.5" y="-24.95" font-family="Times,serif" font-size="9.00">Лампочка</text>
<polyline fill="none" stroke="black" points="930.75,-19 1248.25,-19"/>
<text text-anchor="middle" x="956.75" y="-6.45" font-family="Times,serif" font-size="9.00">left = (nil)</text>
<polyline fill="none" stroke="black" points="982.75,-0.5 982.75,-19"/>
<text text-anchor="middle" x="1033.88" y="-6.45" font-family="Times,serif" font-size="9.00">node = 0x5d30d9f3fa80</text>
<polyline fill="none" stroke="black" points="1085,-0.5 1085,-19"/>
<text text-anchor="middle" x="1138.38" y="-6.45" font-family="Times,serif" font-size="9.00">parent = 0x5d30d9f3fa50</text>
<polyline fill="none" stroke="black" points="1191.75,-0.5 1191.75,-19"/>
<text text-anchor="middle" x="1220" y="-6.45" font-family="Times,serif" font-size="9.00">right = (nil)</text>
</g>
<!-- node_0x5d30d9f3fa50&#45;&gt;node_0x5d30d9f3fa80 -->
<g id="edge10" class="edge">
<title>node_0x5d30d9f3fa50&#45;&gt;node_0x5d30d9f3fa80</title>
<path fill="none" stroke="red" d="M1215.54,-74.02C1193.1,-64.4 1165.28,-52.48 1141.48,-42.28"/>
<polygon fill="red" stroke="red" points="1143.18,-39.2 1132.61,-38.47 1140.42,-45.63 1143.18,-39.2"/>
</g>
<!-- node_0x5d30d9f3fab0 -->
<g id="node12" class="node">
<title>node_0x5d30d9f3fab0</title>
<polygon fill="#bdef9e" stroke="black" points="1266.75,-0.5 1266.75,-37.5 1584.25,-37.5 1584.25,-0.5 1266.75,-0.5"/>
<text text-anchor="middle" x="1425.5" y="-24.95" font-family="Times,serif" font-size="9.00">Фонарик</text>
<polyline fill="none" stroke="black" points="1266.75,-19 1584.25,-19"/>
<text text-anchor="middle" x="1292.75" y="-6.45" font-family="Times,serif" font-size="9.00">left = (nil)</text>
<polyline fill="none" stroke="black" points="1318.75,-0.5 1318.75,-19"/>
<text text-anchor="middle" x="1369.88" y="-6.45" font-family="Times,serif" font-size="9.00">node = 0x5d30d9f3fab0</text>
<polyline fill="none" stroke="black" points="1421,-0.5 1421,-19"/>
<text text-anchor="middle" x="1474.38" y="-6.45" font-family="Times,serif" font-size="9.00">parent = 0x5d30d9f3fa50</text>
<polyline fill="none" stroke="black" points="1527.75,-0.5 1527.75,-19"/>
<text text-anchor="middle" x="1556" y="-6.45" font-family="Times,serif" font-size="9.00">right = (nil)</text>
</g>
<!-- node_0x5d30d9f3fa50&#45;&gt;node_0x5d30d9f3fab0 -->
<g id="edge11" class="edge">
<title>node_0x5d30d9f3fa50&#45;&gt;node_0x5d30d9f3fab0</title>
<path fill="none" stroke="blue" d="M1299.46,-74.02C1321.9,-64.4 1349.72,-52.48 1373.52,-42.28"/>
<polygon fill="blue" stroke="blue" points="1374.58,-45.63 1382.39,-38.47 1371.82,-39.2 1374.58,-45.63"/>
</g>
</g>
</svg>
