<?xml version="1.0" encoding="UTF-8" standalone="no"?>
<!DOCTYPE svg PUBLIC "-//W3C//DTD SVG 1.1//EN"
 "http://www.w3.org/Graphics/SVG/1.1/DTD/svg11.dtd">
<!-- Generated by graphviz version 12.1.2 (0)
 -->
<!-- Pages: 1 -->
<svg width="1394pt" height="194pt"
 viewBox="0.00 0.00 1394.25 194.00" xmlns="http://www.w3.org/2000/svg" xmlns:xlink="http://www.w3.org/1999/xlink">
<g id="graph0" class="graph" transform="scale(1 1) rotate(0) translate(4 190)">
<polygon fill="white" stroke="none" points="-4,4 -4,-190 1390.25,-190 1390.25,4 -4,4"/>
<!-- node_0x58408a0c34a0 -->
<g id="node1" class="node">
<title>node_0x58408a0c34a0</title>
<polygon fill="yellow" stroke="black" points="510.5,-148.5 510.5,-185.5 877.5,-185.5 877.5,-148.5 510.5,-148.5"/>
<text text-anchor="middle" x="694" y="-172.95" font-family="Times,serif" font-size="9.00">Животное</text>
<polyline fill="none" stroke="black" points="510.5,-167 877.5,-167"/>
<text text-anchor="middle" x="559.75" y="-154.45" font-family="Times,serif" font-size="9.00">left = 0x58408a0c36b0</text>
<polyline fill="none" stroke="black" points="609,-148.5 609,-167"/>
<text text-anchor="middle" x="660.88" y="-154.45" font-family="Times,serif" font-size="9.00">node = 0x58408a0c34a0</text>
<polyline fill="none" stroke="black" points="712.75,-148.5 712.75,-167"/>
<text text-anchor="middle" x="744" y="-154.45" font-family="Times,serif" font-size="9.00">parent = (nil)</text>
<polyline fill="none" stroke="black" points="775.25,-148.5 775.25,-167"/>
<text text-anchor="middle" x="826.38" y="-154.45" font-family="Times,serif" font-size="9.00">right = 0x58408a0c36e0</text>
</g>
<!-- node_0x58408a0c36b0 -->
<g id="node2" class="node">
<title>node_0x58408a0c36b0</title>
<polygon fill="#bdef9e" stroke="black" points="270.88,-74.5 270.88,-111.5 685.12,-111.5 685.12,-74.5 270.88,-74.5"/>
<text text-anchor="middle" x="478" y="-98.95" font-family="Times,serif" font-size="9.00">Плавает</text>
<polyline fill="none" stroke="black" points="270.88,-93 685.12,-93"/>
<text text-anchor="middle" x="320.12" y="-80.45" font-family="Times,serif" font-size="9.00">left = 0x58408a0c3710</text>
<polyline fill="none" stroke="black" points="369.38,-74.5 369.38,-93"/>
<text text-anchor="middle" x="421.62" y="-80.45" font-family="Times,serif" font-size="9.00">node = 0x58408a0c36b0</text>
<polyline fill="none" stroke="black" points="473.88,-74.5 473.88,-93"/>
<text text-anchor="middle" x="528" y="-80.45" font-family="Times,serif" font-size="9.00">parent = 0x58408a0c34a0</text>
<polyline fill="none" stroke="black" points="582.12,-74.5 582.12,-93"/>
<text text-anchor="middle" x="633.62" y="-80.45" font-family="Times,serif" font-size="9.00">right = 0x58408a0c3740</text>
</g>
<!-- node_0x58408a0c34a0&#45;&gt;node_0x58408a0c36b0 -->
<g id="edge1" class="edge">
<title>node_0x58408a0c34a0&#45;&gt;node_0x58408a0c36b0</title>
<path fill="none" stroke="red" d="M640.05,-148.02C610.43,-138.14 573.5,-125.83 542.38,-115.46"/>
<polygon fill="red" stroke="red" points="543.66,-112.2 533.07,-112.36 541.45,-118.84 543.66,-112.2"/>
</g>
<!-- node_0x58408a0c36e0 -->
<g id="node5" class="node">
<title>node_0x58408a0c36e0</title>
<polygon fill="#bdef9e" stroke="black" points="703.62,-74.5 703.62,-111.5 1116.38,-111.5 1116.38,-74.5 703.62,-74.5"/>
<text text-anchor="middle" x="910" y="-98.95" font-family="Times,serif" font-size="9.00">Растение</text>
<polyline fill="none" stroke="black" points="703.62,-93 1116.38,-93"/>
<text text-anchor="middle" x="752.88" y="-80.45" font-family="Times,serif" font-size="9.00">left = 0x58408a0c3770</text>
<polyline fill="none" stroke="black" points="802.12,-74.5 802.12,-93"/>
<text text-anchor="middle" x="854" y="-80.45" font-family="Times,serif" font-size="9.00">node = 0x58408a0c36e0</text>
<polyline fill="none" stroke="black" points="905.88,-74.5 905.88,-93"/>
<text text-anchor="middle" x="960" y="-80.45" font-family="Times,serif" font-size="9.00">parent = 0x58408a0c34a0</text>
<polyline fill="none" stroke="black" points="1014.12,-74.5 1014.12,-93"/>
<text text-anchor="middle" x="1065.25" y="-80.45" font-family="Times,serif" font-size="9.00">right = 0x58408a0c37a0</text>
</g>
<!-- node_0x58408a0c34a0&#45;&gt;node_0x58408a0c36e0 -->
<g id="edge4" class="edge">
<title>node_0x58408a0c34a0&#45;&gt;node_0x58408a0c36e0</title>
<path fill="none" stroke="blue" d="M747.95,-148.02C777.57,-138.14 814.5,-125.83 845.62,-115.46"/>
<polygon fill="blue" stroke="blue" points="846.55,-118.84 854.93,-112.36 844.34,-112.2 846.55,-118.84"/>
</g>
<!-- node_0x58408a0c3710 -->
<g id="node3" class="node">
<title>node_0x58408a0c3710</title>
<polygon fill="#bdef9e" stroke="black" points="0,-0.5 0,-37.5 322,-37.5 322,-0.5 0,-0.5"/>
<text text-anchor="middle" x="161" y="-24.95" font-family="Times,serif" font-size="9.00">Кит</text>
<polyline fill="none" stroke="black" points="0,-19 322,-19"/>
<text text-anchor="middle" x="26" y="-6.45" font-family="Times,serif" font-size="9.00">left = (nil)</text>
<polyline fill="none" stroke="black" points="52,-0.5 52,-19"/>
<text text-anchor="middle" x="104.25" y="-6.45" font-family="Times,serif" font-size="9.00">node = 0x58408a0c3710</text>
<polyline fill="none" stroke="black" points="156.5,-0.5 156.5,-19"/>
<text text-anchor="middle" x="211" y="-6.45" font-family="Times,serif" font-size="9.00">parent = 0x58408a0c36b0</text>
<polyline fill="none" stroke="black" points="265.5,-0.5 265.5,-19"/>
<text text-anchor="middle" x="293.75" y="-6.45" font-family="Times,serif" font-size="9.00">right = (nil)</text>
</g>
<!-- node_0x58408a0c36b0&#45;&gt;node_0x58408a0c3710 -->
<g id="edge2" class="edge">
<title>node_0x58408a0c36b0&#45;&gt;node_0x58408a0c3710</title>
<path fill="none" stroke="red" d="M398.83,-74.02C353.92,-63.82 297.57,-51.02 250.99,-40.44"/>
<polygon fill="red" stroke="red" points="251.99,-37.08 241.47,-38.28 250.44,-43.9 251.99,-37.08"/>
</g>
<!-- node_0x58408a0c3740 -->
<g id="node4" class="node">
<title>node_0x58408a0c3740</title>
<polygon fill="#bdef9e" stroke="black" points="340,-0.5 340,-37.5 662,-37.5 662,-0.5 340,-0.5"/>
<text text-anchor="middle" x="501" y="-24.95" font-family="Times,serif" font-size="9.00">Попугай</text>
<polyline fill="none" stroke="black" points="340,-19 662,-19"/>
<text text-anchor="middle" x="366" y="-6.45" font-family="Times,serif" font-size="9.00">left = (nil)</text>
<polyline fill="none" stroke="black" points="392,-0.5 392,-19"/>
<text text-anchor="middle" x="444.25" y="-6.45" font-family="Times,serif" font-size="9.00">node = 0x58408a0c3740</text>
<polyline fill="none" stroke="black" points="496.5,-0.5 496.5,-19"/>
<text text-anchor="middle" x="551" y="-6.45" font-family="Times,serif" font-size="9.00">parent = 0x58408a0c36b0</text>
<polyline fill="none" stroke="black" points="605.5,-0.5 605.5,-19"/>
<text text-anchor="middle" x="633.75" y="-6.45" font-family="Times,serif" font-size="9.00">right = (nil)</text>
</g>
<!-- node_0x58408a0c36b0&#45;&gt;node_0x58408a0c3740 -->
<g id="edge3" class="edge">
<title>node_0x58408a0c36b0&#45;&gt;node_0x58408a0c3740</title>
<path fill="none" stroke="blue" d="M483.69,-74.2C486.15,-66.5 489.09,-57.29 491.84,-48.67"/>
<polygon fill="blue" stroke="blue" points="495.13,-49.88 494.84,-39.28 488.46,-47.75 495.13,-49.88"/>
</g>
<!-- node_0x58408a0c3770 -->
<g id="node6" class="node">
<title>node_0x58408a0c3770</title>
<polygon fill="#bdef9e" stroke="black" points="726.38,-0.5 726.38,-37.5 1047.62,-37.5 1047.62,-0.5 726.38,-0.5"/>
<text text-anchor="middle" x="887" y="-24.95" font-family="Times,serif" font-size="9.00">Ромашка</text>
<polyline fill="none" stroke="black" points="726.38,-19 1047.62,-19"/>
<text text-anchor="middle" x="752.38" y="-6.45" font-family="Times,serif" font-size="9.00">left = (nil)</text>
<polyline fill="none" stroke="black" points="778.38,-0.5 778.38,-19"/>
<text text-anchor="middle" x="830.62" y="-6.45" font-family="Times,serif" font-size="9.00">node = 0x58408a0c3770</text>
<polyline fill="none" stroke="black" points="882.88,-0.5 882.88,-19"/>
<text text-anchor="middle" x="937" y="-6.45" font-family="Times,serif" font-size="9.00">parent = 0x58408a0c36e0</text>
<polyline fill="none" stroke="black" points="991.12,-0.5 991.12,-19"/>
<text text-anchor="middle" x="1019.38" y="-6.45" font-family="Times,serif" font-size="9.00">right = (nil)</text>
</g>
<!-- node_0x58408a0c36e0&#45;&gt;node_0x58408a0c3770 -->
<g id="edge5" class="edge">
<title>node_0x58408a0c36e0&#45;&gt;node_0x58408a0c3770</title>
<path fill="none" stroke="red" d="M904.31,-74.2C901.85,-66.5 898.91,-57.29 896.16,-48.67"/>
<polygon fill="red" stroke="red" points="899.54,-47.75 893.16,-39.28 892.87,-49.88 899.54,-47.75"/>
</g>
<!-- node_0x58408a0c37a0 -->
<g id="node7" class="node">
<title>node_0x58408a0c37a0</title>
<polygon fill="#bdef9e" stroke="black" points="1065.75,-0.5 1065.75,-37.5 1386.25,-37.5 1386.25,-0.5 1065.75,-0.5"/>
<text text-anchor="middle" x="1226" y="-24.95" font-family="Times,serif" font-size="9.00">Гвоздь</text>
<polyline fill="none" stroke="black" points="1065.75,-19 1386.25,-19"/>
<text text-anchor="middle" x="1091.75" y="-6.45" font-family="Times,serif" font-size="9.00">left = (nil)</text>
<polyline fill="none" stroke="black" points="1117.75,-0.5 1117.75,-19"/>
<text text-anchor="middle" x="1169.62" y="-6.45" font-family="Times,serif" font-size="9.00">node = 0x58408a0c37a0</text>
<polyline fill="none" stroke="black" points="1221.5,-0.5 1221.5,-19"/>
<text text-anchor="middle" x="1275.62" y="-6.45" font-family="Times,serif" font-size="9.00">parent = 0x58408a0c36e0</text>
<polyline fill="none" stroke="black" points="1329.75,-0.5 1329.75,-19"/>
<text text-anchor="middle" x="1358" y="-6.45" font-family="Times,serif" font-size="9.00">right = (nil)</text>
</g>
<!-- node_0x58408a0c36e0&#45;&gt;node_0x58408a0c37a0 -->
<g id="edge6" class="edge">
<title>node_0x58408a0c36e0&#45;&gt;node_0x58408a0c37a0</title>
<path fill="none" stroke="blue" d="M988.93,-74.02C1033.69,-63.82 1089.86,-51.02 1136.29,-40.44"/>
<polygon fill="blue" stroke="blue" points="1136.81,-43.91 1145.78,-38.28 1135.26,-37.09 1136.81,-43.91"/>
</g>
</g>
</svg>
