<?xml version="1.0" encoding="UTF-8" standalone="no"?>
<!DOCTYPE svg PUBLIC "-//W3C//DTD SVG 1.1//EN"
 "http://www.w3.org/Graphics/SVG/1.1/DTD/svg11.dtd">
<!-- Generated by graphviz version 12.1.2 (0)
 -->
<!-- Pages: 1 -->
<svg width="1401pt" height="194pt"
 viewBox="0.00 0.00 1400.75 194.00" xmlns="http://www.w3.org/2000/svg" xmlns:xlink="http://www.w3.org/1999/xlink">
<g id="graph0" class="graph" transform="scale(1 1) rotate(0) translate(4 190)">
<polygon fill="white" stroke="none" points="-4,4 -4,-190 1396.75,-190 1396.75,4 -4,4"/>
<!-- node_0x6021010e34a0 -->
<g id="node1" class="node">
<title>node_0x6021010e34a0</title>
<polygon fill="yellow" stroke="black" points="512.12,-148.5 512.12,-185.5 881.38,-185.5 881.38,-148.5 512.12,-148.5"/>
<text text-anchor="middle" x="696.75" y="-172.95" font-family="Times,serif" font-size="9.00">Животное</text>
<polyline fill="none" stroke="black" points="512.12,-167 881.38,-167"/>
<text text-anchor="middle" x="561.75" y="-154.45" font-family="Times,serif" font-size="9.00">left = 0x6021010e36b0</text>
<polyline fill="none" stroke="black" points="611.38,-148.5 611.38,-167"/>
<text text-anchor="middle" x="663.62" y="-154.45" font-family="Times,serif" font-size="9.00">node = 0x6021010e34a0</text>
<polyline fill="none" stroke="black" points="715.88,-148.5 715.88,-167"/>
<text text-anchor="middle" x="747.12" y="-154.45" font-family="Times,serif" font-size="9.00">parent = (nil)</text>
<polyline fill="none" stroke="black" points="778.38,-148.5 778.38,-167"/>
<text text-anchor="middle" x="829.88" y="-154.45" font-family="Times,serif" font-size="9.00">right = 0x6021010e36e0</text>
</g>
<!-- node_0x6021010e36b0 -->
<g id="node2" class="node">
<title>node_0x6021010e36b0</title>
<polygon fill="#bdef9e" stroke="black" points="271.12,-74.5 271.12,-111.5 688.38,-111.5 688.38,-74.5 271.12,-74.5"/>
<text text-anchor="middle" x="479.75" y="-98.95" font-family="Times,serif" font-size="9.00">Плавает</text>
<polyline fill="none" stroke="black" points="271.12,-93 688.38,-93"/>
<text text-anchor="middle" x="320.75" y="-80.45" font-family="Times,serif" font-size="9.00">left = 0x6021010e3710</text>
<polyline fill="none" stroke="black" points="370.38,-74.5 370.38,-93"/>
<text text-anchor="middle" x="423" y="-80.45" font-family="Times,serif" font-size="9.00">node = 0x6021010e36b0</text>
<polyline fill="none" stroke="black" points="475.62,-74.5 475.62,-93"/>
<text text-anchor="middle" x="530.12" y="-80.45" font-family="Times,serif" font-size="9.00">parent = 0x6021010e34a0</text>
<polyline fill="none" stroke="black" points="584.62,-74.5 584.62,-93"/>
<text text-anchor="middle" x="636.5" y="-80.45" font-family="Times,serif" font-size="9.00">right = 0x6021010e3740</text>
</g>
<!-- node_0x6021010e34a0&#45;&gt;node_0x6021010e36b0 -->
<g id="edge1" class="edge">
<title>node_0x6021010e34a0&#45;&gt;node_0x6021010e36b0</title>
<path fill="none" stroke="red" d="M642.55,-148.02C612.79,-138.14 575.69,-125.83 544.43,-115.46"/>
<polygon fill="red" stroke="red" points="545.66,-112.18 535.07,-112.35 543.46,-118.83 545.66,-112.18"/>
</g>
<!-- node_0x6021010e36e0 -->
<g id="node5" class="node">
<title>node_0x6021010e36e0</title>
<polygon fill="#bdef9e" stroke="black" points="706.88,-74.5 706.88,-111.5 1122.62,-111.5 1122.62,-74.5 706.88,-74.5"/>
<text text-anchor="middle" x="914.75" y="-98.95" font-family="Times,serif" font-size="9.00">Растение</text>
<polyline fill="none" stroke="black" points="706.88,-93 1122.62,-93"/>
<text text-anchor="middle" x="756.5" y="-80.45" font-family="Times,serif" font-size="9.00">left = 0x6021010e3770</text>
<polyline fill="none" stroke="black" points="806.12,-74.5 806.12,-93"/>
<text text-anchor="middle" x="858.38" y="-80.45" font-family="Times,serif" font-size="9.00">node = 0x6021010e36e0</text>
<polyline fill="none" stroke="black" points="910.62,-74.5 910.62,-93"/>
<text text-anchor="middle" x="965.12" y="-80.45" font-family="Times,serif" font-size="9.00">parent = 0x6021010e34a0</text>
<polyline fill="none" stroke="black" points="1019.62,-74.5 1019.62,-93"/>
<text text-anchor="middle" x="1071.12" y="-80.45" font-family="Times,serif" font-size="9.00">right = 0x6021010e37a0</text>
</g>
<!-- node_0x6021010e34a0&#45;&gt;node_0x6021010e36e0 -->
<g id="edge4" class="edge">
<title>node_0x6021010e34a0&#45;&gt;node_0x6021010e36e0</title>
<path fill="none" stroke="blue" d="M751.2,-148.02C781.09,-138.14 818.37,-125.83 849.77,-115.46"/>
<polygon fill="blue" stroke="blue" points="850.78,-118.81 859.18,-112.35 848.59,-112.17 850.78,-118.81"/>
</g>
<!-- node_0x6021010e3710 -->
<g id="node3" class="node">
<title>node_0x6021010e3710</title>
<polygon fill="#bdef9e" stroke="black" points="0,-0.5 0,-37.5 323.5,-37.5 323.5,-0.5 0,-0.5"/>
<text text-anchor="middle" x="161.75" y="-24.95" font-family="Times,serif" font-size="9.00">Кит</text>
<polyline fill="none" stroke="black" points="0,-19 323.5,-19"/>
<text text-anchor="middle" x="26" y="-6.45" font-family="Times,serif" font-size="9.00">left = (nil)</text>
<polyline fill="none" stroke="black" points="52,-0.5 52,-19"/>
<text text-anchor="middle" x="104.62" y="-6.45" font-family="Times,serif" font-size="9.00">node = 0x6021010e3710</text>
<polyline fill="none" stroke="black" points="157.25,-0.5 157.25,-19"/>
<text text-anchor="middle" x="212.12" y="-6.45" font-family="Times,serif" font-size="9.00">parent = 0x6021010e36b0</text>
<polyline fill="none" stroke="black" points="267,-0.5 267,-19"/>
<text text-anchor="middle" x="295.25" y="-6.45" font-family="Times,serif" font-size="9.00">right = (nil)</text>
</g>
<!-- node_0x6021010e36b0&#45;&gt;node_0x6021010e3710 -->
<g id="edge2" class="edge">
<title>node_0x6021010e36b0&#45;&gt;node_0x6021010e3710</title>
<path fill="none" stroke="red" d="M400.33,-74.02C355.28,-63.82 298.75,-51.02 252.03,-40.44"/>
<polygon fill="red" stroke="red" points="252.99,-37.07 242.46,-38.27 251.44,-43.9 252.99,-37.07"/>
</g>
<!-- node_0x6021010e3740 -->
<g id="node4" class="node">
<title>node_0x6021010e3740</title>
<polygon fill="#bdef9e" stroke="black" points="342,-0.5 342,-37.5 665.5,-37.5 665.5,-0.5 342,-0.5"/>
<text text-anchor="middle" x="503.75" y="-24.95" font-family="Times,serif" font-size="9.00">Попугай</text>
<polyline fill="none" stroke="black" points="342,-19 665.5,-19"/>
<text text-anchor="middle" x="368" y="-6.45" font-family="Times,serif" font-size="9.00">left = (nil)</text>
<polyline fill="none" stroke="black" points="394,-0.5 394,-19"/>
<text text-anchor="middle" x="446.62" y="-6.45" font-family="Times,serif" font-size="9.00">node = 0x6021010e3740</text>
<polyline fill="none" stroke="black" points="499.25,-0.5 499.25,-19"/>
<text text-anchor="middle" x="554.12" y="-6.45" font-family="Times,serif" font-size="9.00">parent = 0x6021010e36b0</text>
<polyline fill="none" stroke="black" points="609,-0.5 609,-19"/>
<text text-anchor="middle" x="637.25" y="-6.45" font-family="Times,serif" font-size="9.00">right = (nil)</text>
</g>
<!-- node_0x6021010e36b0&#45;&gt;node_0x6021010e3740 -->
<g id="edge3" class="edge">
<title>node_0x6021010e36b0&#45;&gt;node_0x6021010e3740</title>
<path fill="none" stroke="blue" d="M485.68,-74.2C488.25,-66.5 491.32,-57.29 494.19,-48.67"/>
<polygon fill="blue" stroke="blue" points="497.48,-49.87 497.32,-39.28 490.84,-47.66 497.48,-49.87"/>
</g>
<!-- node_0x6021010e3770 -->
<g id="node6" class="node">
<title>node_0x6021010e3770</title>
<polygon fill="#bdef9e" stroke="black" points="730.38,-0.5 730.38,-37.5 1053.12,-37.5 1053.12,-0.5 730.38,-0.5"/>
<text text-anchor="middle" x="891.75" y="-24.95" font-family="Times,serif" font-size="9.00">Ромашка</text>
<polyline fill="none" stroke="black" points="730.38,-19 1053.12,-19"/>
<text text-anchor="middle" x="756.38" y="-6.45" font-family="Times,serif" font-size="9.00">left = (nil)</text>
<polyline fill="none" stroke="black" points="782.38,-0.5 782.38,-19"/>
<text text-anchor="middle" x="835" y="-6.45" font-family="Times,serif" font-size="9.00">node = 0x6021010e3770</text>
<polyline fill="none" stroke="black" points="887.62,-0.5 887.62,-19"/>
<text text-anchor="middle" x="942.12" y="-6.45" font-family="Times,serif" font-size="9.00">parent = 0x6021010e36e0</text>
<polyline fill="none" stroke="black" points="996.62,-0.5 996.62,-19"/>
<text text-anchor="middle" x="1024.88" y="-6.45" font-family="Times,serif" font-size="9.00">right = (nil)</text>
</g>
<!-- node_0x6021010e36e0&#45;&gt;node_0x6021010e3770 -->
<g id="edge5" class="edge">
<title>node_0x6021010e36e0&#45;&gt;node_0x6021010e3770</title>
<path fill="none" stroke="red" d="M909.06,-74.2C906.6,-66.5 903.66,-57.29 900.91,-48.67"/>
<polygon fill="red" stroke="red" points="904.29,-47.75 897.91,-39.28 897.62,-49.88 904.29,-47.75"/>
</g>
<!-- node_0x6021010e37a0 -->
<g id="node7" class="node">
<title>node_0x6021010e37a0</title>
<polygon fill="#bdef9e" stroke="black" points="1070.75,-0.5 1070.75,-37.5 1392.75,-37.5 1392.75,-0.5 1070.75,-0.5"/>
<text text-anchor="middle" x="1231.75" y="-24.95" font-family="Times,serif" font-size="9.00">Гвоздь</text>
<polyline fill="none" stroke="black" points="1070.75,-19 1392.75,-19"/>
<text text-anchor="middle" x="1096.75" y="-6.45" font-family="Times,serif" font-size="9.00">left = (nil)</text>
<polyline fill="none" stroke="black" points="1122.75,-0.5 1122.75,-19"/>
<text text-anchor="middle" x="1175" y="-6.45" font-family="Times,serif" font-size="9.00">node = 0x6021010e37a0</text>
<polyline fill="none" stroke="black" points="1227.25,-0.5 1227.25,-19"/>
<text text-anchor="middle" x="1281.75" y="-6.45" font-family="Times,serif" font-size="9.00">parent = 0x6021010e36e0</text>
<polyline fill="none" stroke="black" points="1336.25,-0.5 1336.25,-19"/>
<text text-anchor="middle" x="1364.5" y="-6.45" font-family="Times,serif" font-size="9.00">right = (nil)</text>
</g>
<!-- node_0x6021010e36e0&#45;&gt;node_0x6021010e37a0 -->
<g id="edge6" class="edge">
<title>node_0x6021010e36e0&#45;&gt;node_0x6021010e37a0</title>
<path fill="none" stroke="blue" d="M993.92,-74.02C1038.83,-63.82 1095.18,-51.02 1141.76,-40.44"/>
<polygon fill="blue" stroke="blue" points="1142.31,-43.9 1151.28,-38.28 1140.76,-37.08 1142.31,-43.9"/>
</g>
</g>
</svg>
