<?xml version="1.0" encoding="UTF-8" standalone="no"?>
<!DOCTYPE svg PUBLIC "-//W3C//DTD SVG 1.1//EN"
 "http://www.w3.org/Graphics/SVG/1.1/DTD/svg11.dtd">
<!-- Generated by graphviz version 12.1.2 (0)
 -->
<!-- Pages: 1 -->
<svg width="1386pt" height="194pt"
 viewBox="0.00 0.00 1386.38 194.00" xmlns="http://www.w3.org/2000/svg" xmlns:xlink="http://www.w3.org/1999/xlink">
<g id="graph0" class="graph" transform="scale(1 1) rotate(0) translate(4 190)">
<polygon fill="white" stroke="none" points="-4,4 -4,-190 1382.38,-190 1382.38,4 -4,4"/>
<!-- node_0x644f4997a490 -->
<g id="node1" class="node">
<title>node_0x644f4997a490</title>
<polygon fill="yellow" stroke="black" points="504.38,-148.5 504.38,-185.5 869.88,-185.5 869.88,-148.5 504.38,-148.5"/>
<text text-anchor="middle" x="687.12" y="-172.95" font-family="Times,serif" font-size="9.00">Животное</text>
<polyline fill="none" stroke="black" points="504.38,-167 869.88,-167"/>
<text text-anchor="middle" x="552.88" y="-154.45" font-family="Times,serif" font-size="9.00">left = 0x644f4997a4c0</text>
<polyline fill="none" stroke="black" points="601.38,-148.5 601.38,-167"/>
<text text-anchor="middle" x="653.25" y="-154.45" font-family="Times,serif" font-size="9.00">node = 0x644f4997a490</text>
<polyline fill="none" stroke="black" points="705.12,-148.5 705.12,-167"/>
<text text-anchor="middle" x="736.38" y="-154.45" font-family="Times,serif" font-size="9.00">parent = (nil)</text>
<polyline fill="none" stroke="black" points="767.62,-148.5 767.62,-167"/>
<text text-anchor="middle" x="818.75" y="-154.45" font-family="Times,serif" font-size="9.00">right = 0x644f4997a550</text>
</g>
<!-- node_0x644f4997a4c0 -->
<g id="node2" class="node">
<title>node_0x644f4997a4c0</title>
<polygon fill="#bdef9e" stroke="black" points="268.25,-74.5 268.25,-111.5 678,-111.5 678,-74.5 268.25,-74.5"/>
<text text-anchor="middle" x="473.12" y="-98.95" font-family="Times,serif" font-size="9.00">Плавает</text>
<polyline fill="none" stroke="black" points="268.25,-93 678,-93"/>
<text text-anchor="middle" x="316.38" y="-80.45" font-family="Times,serif" font-size="9.00">left = 0x644f4997a4f0</text>
<polyline fill="none" stroke="black" points="364.5,-74.5 364.5,-93"/>
<text text-anchor="middle" x="416" y="-80.45" font-family="Times,serif" font-size="9.00">node = 0x644f4997a4c0</text>
<polyline fill="none" stroke="black" points="467.5,-74.5 467.5,-93"/>
<text text-anchor="middle" x="521.62" y="-80.45" font-family="Times,serif" font-size="9.00">parent = 0x644f4997a490</text>
<polyline fill="none" stroke="black" points="575.75,-74.5 575.75,-93"/>
<text text-anchor="middle" x="626.88" y="-80.45" font-family="Times,serif" font-size="9.00">right = 0x644f4997a520</text>
</g>
<!-- node_0x644f4997a490&#45;&gt;node_0x644f4997a4c0 -->
<g id="edge1" class="edge">
<title>node_0x644f4997a490&#45;&gt;node_0x644f4997a4c0</title>
<path fill="none" stroke="red" d="M633.68,-148.02C604.33,-138.14 567.74,-125.83 536.91,-115.46"/>
<polygon fill="red" stroke="red" points="538.29,-112.23 527.7,-112.36 536.06,-118.87 538.29,-112.23"/>
</g>
<!-- node_0x644f4997a550 -->
<g id="node5" class="node">
<title>node_0x644f4997a550</title>
<polygon fill="#bdef9e" stroke="black" points="696.12,-74.5 696.12,-111.5 1108.12,-111.5 1108.12,-74.5 696.12,-74.5"/>
<text text-anchor="middle" x="902.12" y="-98.95" font-family="Times,serif" font-size="9.00">Растение</text>
<polyline fill="none" stroke="black" points="696.12,-93 1108.12,-93"/>
<text text-anchor="middle" x="745" y="-80.45" font-family="Times,serif" font-size="9.00">left = 0x644f4997a580</text>
<polyline fill="none" stroke="black" points="793.88,-74.5 793.88,-93"/>
<text text-anchor="middle" x="845.75" y="-80.45" font-family="Times,serif" font-size="9.00">node = 0x644f4997a550</text>
<polyline fill="none" stroke="black" points="897.62,-74.5 897.62,-93"/>
<text text-anchor="middle" x="951.75" y="-80.45" font-family="Times,serif" font-size="9.00">parent = 0x644f4997a490</text>
<polyline fill="none" stroke="black" points="1005.88,-74.5 1005.88,-93"/>
<text text-anchor="middle" x="1057" y="-80.45" font-family="Times,serif" font-size="9.00">right = 0x644f4997a5b0</text>
</g>
<!-- node_0x644f4997a490&#45;&gt;node_0x644f4997a550 -->
<g id="edge4" class="edge">
<title>node_0x644f4997a490&#45;&gt;node_0x644f4997a550</title>
<path fill="none" stroke="blue" d="M740.82,-148.02C770.31,-138.14 807.07,-125.83 838.04,-115.46"/>
<polygon fill="blue" stroke="blue" points="838.93,-118.85 847.3,-112.36 836.71,-112.22 838.93,-118.85"/>
</g>
<!-- node_0x644f4997a4f0 -->
<g id="node3" class="node">
<title>node_0x644f4997a4f0</title>
<polygon fill="#bdef9e" stroke="black" points="0,-0.5 0,-37.5 318.25,-37.5 318.25,-0.5 0,-0.5"/>
<text text-anchor="middle" x="159.12" y="-24.95" font-family="Times,serif" font-size="9.00">Кит</text>
<polyline fill="none" stroke="black" points="0,-19 318.25,-19"/>
<text text-anchor="middle" x="26" y="-6.45" font-family="Times,serif" font-size="9.00">left = (nil)</text>
<polyline fill="none" stroke="black" points="52,-0.5 52,-19"/>
<text text-anchor="middle" x="103.12" y="-6.45" font-family="Times,serif" font-size="9.00">node = 0x644f4997a4f0</text>
<polyline fill="none" stroke="black" points="154.25,-0.5 154.25,-19"/>
<text text-anchor="middle" x="208" y="-6.45" font-family="Times,serif" font-size="9.00">parent = 0x644f4997a4c0</text>
<polyline fill="none" stroke="black" points="261.75,-0.5 261.75,-19"/>
<text text-anchor="middle" x="290" y="-6.45" font-family="Times,serif" font-size="9.00">right = (nil)</text>
</g>
<!-- node_0x644f4997a4c0&#45;&gt;node_0x644f4997a4f0 -->
<g id="edge2" class="edge">
<title>node_0x644f4997a4c0&#45;&gt;node_0x644f4997a4f0</title>
<path fill="none" stroke="red" d="M394.7,-74.02C350.31,-63.84 294.64,-51.07 248.56,-40.51"/>
<polygon fill="red" stroke="red" points="249.37,-37.1 238.84,-38.28 247.81,-43.93 249.37,-37.1"/>
</g>
<!-- node_0x644f4997a520 -->
<g id="node4" class="node">
<title>node_0x644f4997a520</title>
<polygon fill="#bdef9e" stroke="black" points="336.25,-0.5 336.25,-37.5 656,-37.5 656,-0.5 336.25,-0.5"/>
<text text-anchor="middle" x="496.12" y="-24.95" font-family="Times,serif" font-size="9.00">Попугай</text>
<polyline fill="none" stroke="black" points="336.25,-19 656,-19"/>
<text text-anchor="middle" x="362.25" y="-6.45" font-family="Times,serif" font-size="9.00">left = (nil)</text>
<polyline fill="none" stroke="black" points="388.25,-0.5 388.25,-19"/>
<text text-anchor="middle" x="440.12" y="-6.45" font-family="Times,serif" font-size="9.00">node = 0x644f4997a520</text>
<polyline fill="none" stroke="black" points="492,-0.5 492,-19"/>
<text text-anchor="middle" x="545.75" y="-6.45" font-family="Times,serif" font-size="9.00">parent = 0x644f4997a4c0</text>
<polyline fill="none" stroke="black" points="599.5,-0.5 599.5,-19"/>
<text text-anchor="middle" x="627.75" y="-6.45" font-family="Times,serif" font-size="9.00">right = (nil)</text>
</g>
<!-- node_0x644f4997a4c0&#45;&gt;node_0x644f4997a520 -->
<g id="edge3" class="edge">
<title>node_0x644f4997a4c0&#45;&gt;node_0x644f4997a520</title>
<path fill="none" stroke="blue" d="M478.81,-74.2C481.27,-66.5 484.21,-57.29 486.97,-48.67"/>
<polygon fill="blue" stroke="blue" points="490.26,-49.88 489.96,-39.28 483.59,-47.75 490.26,-49.88"/>
</g>
<!-- node_0x644f4997a580 -->
<g id="node6" class="node">
<title>node_0x644f4997a580</title>
<polygon fill="#bdef9e" stroke="black" points="718.88,-0.5 718.88,-37.5 1039.38,-37.5 1039.38,-0.5 718.88,-0.5"/>
<text text-anchor="middle" x="879.12" y="-24.95" font-family="Times,serif" font-size="9.00">Ромашка</text>
<polyline fill="none" stroke="black" points="718.88,-19 1039.38,-19"/>
<text text-anchor="middle" x="744.88" y="-6.45" font-family="Times,serif" font-size="9.00">left = (nil)</text>
<polyline fill="none" stroke="black" points="770.88,-0.5 770.88,-19"/>
<text text-anchor="middle" x="822.75" y="-6.45" font-family="Times,serif" font-size="9.00">node = 0x644f4997a580</text>
<polyline fill="none" stroke="black" points="874.62,-0.5 874.62,-19"/>
<text text-anchor="middle" x="928.75" y="-6.45" font-family="Times,serif" font-size="9.00">parent = 0x644f4997a550</text>
<polyline fill="none" stroke="black" points="982.88,-0.5 982.88,-19"/>
<text text-anchor="middle" x="1011.12" y="-6.45" font-family="Times,serif" font-size="9.00">right = (nil)</text>
</g>
<!-- node_0x644f4997a550&#45;&gt;node_0x644f4997a580 -->
<g id="edge5" class="edge">
<title>node_0x644f4997a550&#45;&gt;node_0x644f4997a580</title>
<path fill="none" stroke="red" d="M896.44,-74.2C893.98,-66.5 891.04,-57.29 888.28,-48.67"/>
<polygon fill="red" stroke="red" points="891.66,-47.75 885.29,-39.28 884.99,-49.88 891.66,-47.75"/>
</g>
<!-- node_0x644f4997a5b0 -->
<g id="node7" class="node">
<title>node_0x644f4997a5b0</title>
<polygon fill="#bdef9e" stroke="black" points="1057.88,-0.5 1057.88,-37.5 1378.38,-37.5 1378.38,-0.5 1057.88,-0.5"/>
<text text-anchor="middle" x="1218.12" y="-24.95" font-family="Times,serif" font-size="9.00">Гвоздь</text>
<polyline fill="none" stroke="black" points="1057.88,-19 1378.38,-19"/>
<text text-anchor="middle" x="1083.88" y="-6.45" font-family="Times,serif" font-size="9.00">left = (nil)</text>
<polyline fill="none" stroke="black" points="1109.88,-0.5 1109.88,-19"/>
<text text-anchor="middle" x="1161.75" y="-6.45" font-family="Times,serif" font-size="9.00">node = 0x644f4997a5b0</text>
<polyline fill="none" stroke="black" points="1213.62,-0.5 1213.62,-19"/>
<text text-anchor="middle" x="1267.75" y="-6.45" font-family="Times,serif" font-size="9.00">parent = 0x644f4997a550</text>
<polyline fill="none" stroke="black" points="1321.88,-0.5 1321.88,-19"/>
<text text-anchor="middle" x="1350.12" y="-6.45" font-family="Times,serif" font-size="9.00">right = (nil)</text>
</g>
<!-- node_0x644f4997a550&#45;&gt;node_0x644f4997a5b0 -->
<g id="edge6" class="edge">
<title>node_0x644f4997a550&#45;&gt;node_0x644f4997a5b0</title>
<path fill="none" stroke="blue" d="M981.05,-74.02C1025.81,-63.82 1081.99,-51.02 1128.42,-40.44"/>
<polygon fill="blue" stroke="blue" points="1128.94,-43.91 1137.91,-38.28 1127.38,-37.09 1128.94,-43.91"/>
</g>
</g>
</svg>
